<svg width="1008.11" height="779.57" xmlns="http://www.w3.org/2000/svg" xmlns:xlink="http://www.w3.org/1999/xlink">
 <defs>
  <linearGradient y2="0.000225" x2="0.500137" y1="0.999954" x1="0.500137" id="a2d550d8-b94a-4b4e-8cdf-b12633d149de">
   <stop stop-opacity="0.25" stop-color="gray" offset="0"/>
   <stop stop-opacity="0.12" stop-color="gray" offset="0.54"/>
   <stop stop-opacity="0.1" stop-color="gray" offset="1"/>
  </linearGradient>
  <linearGradient xlink:href="#a2d550d8-b94a-4b4e-8cdf-b12633d149de" gradientTransform="translate(-1462.23)" y2="326.53" x2="1707.38" y1="783.9" x1="1707.38" id="a292624c-a529-40fd-b6b9-058cc3ca33ba"/>
 </defs>
 <title>usability testing</title>
 <g>
  <title>background</title>
  <rect fill="none" id="canvas_background" height="402" width="582" y="-1" x="-1"/>
 </g>
 <g>
  <title>Layer 1</title>
  <ellipse id="svg_1" opacity="0.1" fill="#5e3107" ry="44.52" rx="363.97" cy="707.07" cx="365.75"/>
  <rect id="svg_2" fill="#e8eaf2" rx="7.65" height="538.66" width="987.63" x="20.48"/>
  <path id="svg_3" fill="#65617d" d="m1008.100003,7.649999l0,25.86l-987.63,0l0,-25.86a7.65,7.65 0 0 1 7.66,-7.65l972.32,0a7.64,7.64 0 0 1 7.65,7.65z"/>
  <circle id="svg_4" opacity="0.8" fill="#fa5959" r="6.52" cy="16.76" cx="35.72"/>
  <circle id="svg_5" opacity="0.8" fill="#fed253" r="6.52" cy="16.76" cx="53.29"/>
  <circle id="svg_6" opacity="0.8" fill="#8ccf4d" r="6.52" cy="16.76" cx="70.87"/>
  <rect id="svg_7" opacity="0.2" fill="#6c63ff" rx="7.65" height="223.11" width="480.48" y="68.32" x="64.35"/>
  <rect id="svg_8" fill="#fff" rx="1.89" height="15.31" width="480.48" y="359.46" x="64.35"/>
  <rect id="svg_9" fill="#fff" rx="1.89" height="15.31" width="480.48" y="391.78" x="64.35"/>
  <rect id="svg_10" fill="#fff" rx="1.89" height="15.31" width="480.48" y="424.09" x="64.35"/>
  <rect id="svg_11" fill="#fff" rx="1.89" height="15.31" width="480.48" y="456.41" x="64.35"/>
  <rect id="svg_12" fill="#fff" rx="1.89" height="15.31" width="480.48" y="488.72" x="64.35"/>
  <rect id="svg_13" fill="#fff" rx="7.65" height="435.71" width="352.06" y="68.32" x="600.66"/>
  <rect id="svg_14" opacity="0.2" fill="#6c63ff" rx="1.89" height="15.31" width="63.5" y="118.52" x="620.22"/>
  <rect opacity="0.39" id="svg_15" fill="#56ffff" rx="1.89" height="15.31" width="315.78" y="147.43" x="620.22"/>
  <rect opacity="0.4" id="svg_16" fill="#56ffff" rx="1.89" height="15.31" width="315.78" y="175.349724" x="620.22"/>
  <rect id="svg_17" fill="#ffff00" rx="1.89" height="15.31" width="63.5" y="234.17" x="620.22"/>
  <rect id="svg_18" fill="#e8eaf2" rx="1.89" height="15.31" width="315.78" y="263.09" x="620.22"/>
  <rect id="svg_19" fill="#e8eaf2" rx="1.89" height="15.31" width="315.78" y="292" x="620.22"/>
  <rect id="svg_20" opacity="0.2" fill="#ff0000" rx="1.89" height="15.31" width="63.5" y="349.83" x="620.22"/>
  <rect opacity="0.49" id="svg_21" fill="#ffaad4" rx="1.89" height="15.31" width="315.78" y="379.740276" x="621.220276"/>
  <rect opacity="0.47" id="svg_22" fill="#ffaad4" rx="1.89" height="15.31" width="315.78" y="408.650276" x="621.220276"/>
  <rect id="svg_23" fill="#6c63ff" rx="1.89" height="15.31" width="63.5" y="465.48" x="867.97"/>
  <rect id="svg_24" fill="#6c63ff" rx="1.89" height="15.31" width="63.5" y="307.31" x="481.33"/>
  <path id="svg_25" fill="url(#a2d550d8-b94a-4b4e-8cdf-b12633d149de)" d="m505.550003,335.659999a16.06,16.06 0 0 0 3.35,3.39c0.84,0.69 1.69,1.39 2.58,2l0.78,0.52a1,1 0 0 0 -0.08,0.14a2,2 0 0 0 -0.23,1.25a2.66,2.66 0 0 0 1,1.28a13.21,13.21 0 0 1 4,7.28c0.31,1.62 -0.78,3.35 -0.71,5a14.42,14.42 0 0 0 1.27,4.66c1.36,3.47 2.81,7.06 5.54,9.59a30.94,30.94 0 0 0 6.21,15.31c2.87,3.68 6.7,6.45 10.47,9.18a19.86,19.86 0 0 0 3.88,2.43a21,21 0 0 0 3.83,1a197.51,197.51 0 0 0 33.61,3.86q0.48,10.08 0.41,20.18a8.49,8.49 0 0 1 -0.46,3.26a14.78,14.78 0 0 1 -2,2.73c-2.59,3.44 -2.72,8.09 -2.5,12.39a114.47,114.47 0 0 0 1.75,15c1.17,6.34 0.1,13.35 2.35,19.38c0.89,2.38 1.78,4.77 2.66,7.15a6.24,6.24 0 0 1 0.53,2.11c0,1.57 -1,2.9 -1.8,4.26a12.26,12.26 0 0 0 -1.56,6.49a1.31,1.31 0 0 0 0.19,0.73c0.29,0.39 0.88,0.36 1.37,0.28a59.65,59.65 0 0 1 6,-0.55a12.15,12.15 0 0 0 -1,1.42a21.92,21.92 0 0 0 -1.27,2.61a24.8,24.8 0 0 0 -1.69,4.67a5.34,5.34 0 0 0 -0.17,0.71c-0.11,0.48 -0.21,1 -0.29,1.45a48.25,48.25 0 0 0 -0.52,8.58c-0.28,5.35 -0.55,10.93 -1.07,12.57c-0.73,2.31 0.18,6 1.08,9.53a22.68,22.68 0 0 0 1.3,7.14a43.67,43.67 0 0 0 0.87,7.53q4.63,26.11 9.88,52.13c0.31,1.5 0.61,3 1,4.48a36.46,36.46 0 0 0 6.69,13.23a60.22,60.22 0 0 1 7,11.19c-0.2,0.94 -0.41,1.89 -0.64,2.83c-2,8.3 -4.56,16.48 -5.47,25c-0.36,3.38 -0.46,6.86 -1.8,10c-0.68,1.59 -1.68,3.1 -1.82,4.83a5.35,5.35 0 0 0 0.74,3.13l-0.66,0.54l-0.37,0.3c-2.54,2 -5.94,2.43 -9.07,3.25s-6.49,2.46 -7.46,5.57a4.25,4.25 0 0 0 -0.15,0.59c-0.57,2.86 1.16,5.9 3.6,7.58c2.6,1.79 5.84,2.34 9,2.75s6.36,0.7 9.19,2.11c2.45,1.21 4.51,3.2 7.1,4.08l0.47,0.13c-0.59,0.35 -1.17,0.69 -1.78,1a26.75,26.75 0 0 1 -8.57,2.73c-3,0.41 -6.62,0.61 -8.17,3.24a0,0 0 0 0 0,0c-1.27,2.17 -0.35,5.11 1.48,6.83s4.37,2.48 6.82,3a122.37,122.37 0 0 0 17,2.11l5.54,0.43c5.41,0.41 10.83,0.83 16.27,0.85a111.68,111.68 0 0 0 20,-1.74a1.71,1.71 0 0 0 1.83,-2a98,98 0 0 0 -2.46,-20.18c-0.46,-2 -3.17,0.73 -4.68,2.44c-0.21,-1 -0.43,-2 -0.69,-2.93l1.19,-0.56a4.37,4.37 0 0 0 2.18,-1.82a4.51,4.51 0 0 0 0.23,-2.1c-0.22,-4.36 -0.49,-8.88 -2.56,-12.71a26.66,26.66 0 0 0 -5,-6.16a234.72,234.72 0 0 0 -5,-40.78c-1.53,-6.83 -3.43,-13.74 -7.38,-19.52c-0.5,-0.72 -1,-1.44 -1.57,-2.17a176.34,176.34 0 0 0 -2.38,-19.59a5,5 0 0 1 0,-2.61a8.36,8.36 0 0 1 1.44,-2c2.38,-3.07 1.41,-7.43 1.13,-11.31c-0.39,-5.56 0.92,-11.09 2.23,-16.52l4.83,-20.09a31.71,31.71 0 0 1 1.7,-5.57a54.23,54.23 0 0 1 4.35,-7a39.52,39.52 0 0 0 6.06,-23.87c0.92,0.33 1.83,0.66 2.73,1c0.68,-5.61 -1.69,-12 0,-17.25a22.11,22.11 0 0 0 6.84,-8.15c1.33,-3 1.7,-6.3 3.09,-9.24c0.78,-1.66 1.88,-3.18 2.34,-5c0.68,-2.66 -0.18,-5.46 -0.14,-8.21c0.09,-6 4.42,-11.53 3.49,-17.43c-0.45,-2.8 -2.08,-5.41 -2,-8.25a14,14 0 0 1 1.15,-4.46c3.3,-8.71 6.53,-18 4.85,-27.15c-0.43,-2.35 -1.19,-4.68 -1.06,-7.06c0.14,-2.73 1.43,-5.38 1,-8.09a6.28,6.28 0 0 0 -1.21,-2.83a34.28,34.28 0 0 0 3,-5.73a8.26,8.26 0 0 0 0.79,-3.67a6.48,6.48 0 0 0 -2.58,-4.36a26.41,26.41 0 0 0 -4.5,-2.59a4,4 0 0 1 -1.31,-0.94a10.51,10.51 0 0 1 -0.74,-1.41c-0.88,-1.53 -2.8,-2 -4.3,-2.93c-5.45,-3.33 -4.93,-11.9 -9.58,-16.28a9.32,9.32 0 0 0 -11.67,-0.62a2.76,2.76 0 0 1 -1.64,0.81a3.14,3.14 0 0 1 -1.59,-0.85a6.44,6.44 0 0 0 -3.93,-1.09a37.44,37.44 0 0 1 -1.1,-10.44l0.42,0a5.6,5.6 0 0 0 1.63,-0.19c2.39,-0.69 3.75,-3.17 4.73,-5.47a43.5,43.5 0 0 0 2.1,-6c0.05,-0.2 0.09,-0.39 0.14,-0.59c4.58,3.22 9.9,6.59 11.18,5.88c2.34,-1.29 -10.5,-10.43 -10.5,-10.43l0,0l0,0c1.51,-1.34 2.35,-3.76 2.73,-5.9a32.08,32.08 0 0 0 0.1,-12.91c-1,-4.21 -3.53,-8.22 -7.37,-10.19c-1.7,-0.88 -3.76,-1.48 -5,-2.83l0,0a3.53,3.53 0 0 1 -0.49,-0.66l0,0a3.9,3.9 0 0 1 -0.19,-0.35a4.34,4.34 0 0 0 -0.54,-1.05c-0.7,-0.82 -2,-0.57 -3,-0.44l-0.35,0l-0.28,0l-0.29,0c-3.81,0.08 -7.5,-2.05 -11.35,-2.05c-4.22,0 -7.82,2.45 -11.53,4.13c-0.75,0.34 -1.46,0.65 -2.13,1c-2.33,1.09 -4.16,2.24 -5.33,4.86a7.45,7.45 0 0 0 -1.55,3a8.23,8.23 0 0 0 -0.2,1.54a25.55,25.55 0 0 0 11.49,42.87c0.09,0.25 0.19,0.5 0.27,0.76a21.83,21.83 0 0 1 1.11,7.13c0,0.17 0,0.34 0,0.52a19.35,19.35 0 0 0 -5.51,2.24a10.68,10.68 0 0 0 -4.66,5.71c-0.05,0.19 -0.1,0.37 -0.14,0.54a14.43,14.43 0 0 0 -4.2,-0.72a4.5,4.5 0 0 0 -3.61,1.08a3.48,3.48 0 0 0 -0.68,1.39c-0.49,0.45 -0.58,1.24 -0.93,1.84c-1.07,1.88 -3.86,1.26 -6,1.78c-2.28,0.56 -4.08,2.7 -6.42,2.71a11.71,11.71 0 0 0 -2.7,-0.1c-0.88,0.22 -1.57,1.43 -0.9,2a2.86,2.86 0 0 0 -2.7,1.3c-0.65,0.84 -1.07,1.84 -1.79,2.63a2.72,2.72 0 0 0 -2.78,-1.08a10,10 0 0 0 -2.94,1.16a4.37,4.37 0 0 1 -1.3,0.45a5.26,5.26 0 0 1 -1.58,-0.14a12.64,12.64 0 0 0 -7.4,1c-2,1 -4,-0.81 -6.24,-0.95a3.42,3.42 0 0 1 -2.28,-0.71a4.37,4.37 0 0 1 -0.86,-1.8a8.94,8.94 0 0 0 -6.54,-5.79a7.62,7.62 0 0 0 -4.47,-9.39a8.14,8.14 0 0 0 -2.8,-7.08a11.49,11.49 0 0 1 -1.4,-1.1a6.66,6.66 0 0 1 -1.3,-2.4q-1,-2.62 -2,-5.25c-0.87,-0.18 -1.56,-0.54 -2.39,-0.68c0,-0.18 0,-0.36 0,-0.54a17.43,17.43 0 0 0 -0.9,-5.28a29.43,29.43 0 0 0 -4.24,-7.7c-1.89,-2.65 -4,-5.25 -6.81,-6.85a27.23,27.23 0 0 0 -2.9,-1.34l-5.11,-2.11a2.56,2.56 0 0 0 -0.93,-0.24c-1.38,0 -1.63,2.12 -0.85,3.26c1.56,2.29 5.06,2.93 6.05,5.53a3.94,3.94 0 0 0 -3.65,2.85a2,2 0 0 1 -0.49,1.14c-0.45,0.37 -1.16,0.16 -1.67,0.44c-0.91,0.48 -0.51,1.84 -0.61,2.87a13.34,13.34 0 0 1 -0.93,2.59a5.52,5.52 0 0 0 0.88,4.7zm122.5,358.27l-0.12,-1.58c0.11,0.28 0.21,0.57 0.32,0.85q1.35,3.54 3,7l-0.19,-0.09a8.41,8.41 0 0 0 -2.44,-0.7c-0.22,0 -0.45,-0.05 -0.68,-0.06a19,19 0 0 0 0.11,-5.42z"/>
  <path id="svg_26" fill="#755358" d="m614.200003,349.219999c-0.1,3.73 -1.36,7.35 -1.56,11.07c11,0.55 21.83,-4.78 32.7,-3.15c-3,-2 -4.66,-5.51 -5.62,-9a37.28,37.28 0 0 1 -1.07,-13.83a6.52,6.52 0 0 1 0.13,-0.77c0.41,-1.82 1.45,-4.4 1.17,-5.84c-0.37,-1.9 -2.16,-1.52 -3.77,-1.41a138.9,138.9 0 0 0 -14.66,1.89c-1.27,0.22 -13.58,3.29 -13.76,3a58.23,58.23 0 0 1 5.33,11a21.65,21.65 0 0 1 1.11,7.04z"/>
  <path id="svg_27" fill="#755358" d="m505.550003,337.689999a15.83,15.83 0 0 0 3.35,3.39c0.84,0.68 1.69,1.38 2.58,2a11.14,11.14 0 0 0 5.5,2.23c2.61,0.18 8.17,-1.36 9.8,-3.6a6.52,6.52 0 0 0 0.93,-3.75a17.23,17.23 0 0 0 -0.9,-5.25a29.26,29.26 0 0 0 -4.24,-7.67c-1.89,-2.63 -4,-5.22 -6.81,-6.81a25.33,25.33 0 0 0 -2.9,-1.33l-5.11,-2.12a2.56,2.56 0 0 0 -0.93,-0.24c-1.38,0 -1.63,2.11 -0.85,3.24c1.56,2.28 5.06,2.92 6.05,5.51a3.9,3.9 0 0 0 -3.65,2.83a2,2 0 0 1 -0.49,1.14c-0.45,0.36 -1.16,0.16 -1.67,0.43c-0.91,0.48 -0.51,1.84 -0.61,2.86a13.74,13.74 0 0 1 -0.93,2.58a5.43,5.43 0 0 0 0.88,4.56z"/>
  <path id="svg_28" fill="#65617d" d="m657.050003,711.779999c-0.85,-0.84 -2.23,-0.7 -3.41,-0.51a126.86,126.86 0 0 1 -19.22,1.51c-0.8,-3.92 1.53,-7.74 2.28,-11.67a10.5,10.5 0 0 1 0.76,-3c0.91,-1.74 3,-2.53 4.86,-2.93c3.45,-0.73 8.85,-2 10.78,1.47c2.31,4.23 3.05,10.42 3.95,15.13z"/>
  <path id="svg_29" fill="#3f3d56" d="m586.780003,696.909999c2.6,1.78 5.84,2.33 9,2.74s6.36,0.7 9.19,2.09c2.45,1.21 4.51,3.19 7.1,4.06a14.75,14.75 0 0 0 7.38,0.12c2.91,-0.55 6,-1.61 7.58,-4.12c1.4,-2.24 1.25,-5.07 1.06,-7.7c-0.23,-3 -0.44,-6 -0.66,-8.93a4.32,4.32 0 0 0 -0.56,-2.16c-2.1,-3.07 -7.22,1.28 -10,1.28c-4.34,0 -9,-2.36 -12.13,-5.24a3.88,3.88 0 0 0 -0.94,-0.71c-1.24,-0.55 -2.47,0.47 -3.57,1.37l-0.37,0.3c-2.54,2 -5.94,2.42 -9.07,3.23s-6.49,2.45 -7.46,5.54a4.39,4.39 0 0 0 -0.15,0.6c-0.57,2.84 1.16,5.87 3.6,7.53z"/>
  <path id="svg_30" opacity="0.05" d="m586.780003,696.909999c2.6,1.78 5.84,2.33 9,2.74s6.36,0.7 9.19,2.09c2.45,1.21 4.51,3.19 7.1,4.06a14.75,14.75 0 0 0 7.38,0.12c2.91,-0.55 6,-1.61 7.58,-4.12c1.4,-2.24 1.25,-5.07 1.06,-7.7c-0.23,-3 -0.44,-6 -0.66,-8.93a4.32,4.32 0 0 0 -0.56,-2.16c-2.1,-3.07 -7.22,1.28 -10,1.28c-4.34,0 -9,-2.36 -12.13,-5.24a3.88,3.88 0 0 0 -0.94,-0.71c-1.24,-0.55 -2.47,0.47 -3.57,1.37l-0.37,0.3c-2.54,2 -5.94,2.42 -9.07,3.23s-6.49,2.45 -7.46,5.54a4.39,4.39 0 0 0 -0.15,0.6c-0.57,2.84 1.16,5.87 3.6,7.53z"/>
  <path id="svg_31" fill="#e8eaf2" d="m586.780003,697.909999c2.6,1.78 5.84,2.33 9,2.74s6.36,0.7 9.19,2.09c2.45,1.21 4.51,3.19 7.1,4.06a14.75,14.75 0 0 0 7.38,0.12a12.19,12.19 0 0 0 7.58,-5.12c1.4,-2.24 1.25,-5.07 1.06,-7.7c-0.23,-3 -0.44,-6 -0.66,-8.93a4.32,4.32 0 0 0 -0.56,-2.16c-2.1,-3.07 -7.22,1.28 -10,1.28c-4.34,0 -9,-2.36 -12.13,-5.24a3.88,3.88 0 0 0 -0.94,-0.71c-1.24,-0.55 -2.47,0.47 -3.57,1.37a25.9,25.9 0 0 0 3,6.3a13.15,13.15 0 0 0 9.56,6c1.94,0.14 3.93,-0.24 5.81,0.26s3.62,2.42 3,4.24s-2.95,2.17 -4.84,2.27a21.46,21.46 0 0 1 -7.88,-0.56c-1.54,-0.51 -3,-1.36 -4.44,-2c-6.37,-2.63 -14.4,-1.16 -19.65,-5.61a11.24,11.24 0 0 0 -1.61,-1.23c-1.38,2.88 1.16,6.87 3.6,8.53z"/>
  <path id="svg_32" opacity="0.05" d="m586.780003,697.909999c2.6,1.78 5.84,2.33 9,2.74s6.36,0.7 9.19,2.09c2.45,1.21 4.51,3.19 7.1,4.06a14.75,14.75 0 0 0 7.38,0.12a12.19,12.19 0 0 0 7.58,-5.12c1.4,-2.24 1.25,-5.07 1.06,-7.7c-0.23,-3 -0.44,-6 -0.66,-8.93a4.32,4.32 0 0 0 -0.56,-2.16c-2.1,-3.07 -7.22,1.28 -10,1.28c-4.34,0 -9,-2.36 -12.13,-5.24a3.88,3.88 0 0 0 -0.94,-0.71c-1.24,-0.55 -2.47,0.47 -3.57,1.37a25.9,25.9 0 0 0 3,6.3a13.15,13.15 0 0 0 9.56,6c1.94,0.14 3.93,-0.24 5.81,0.26s3.62,2.42 3,4.24s-2.95,2.17 -4.84,2.27a21.46,21.46 0 0 1 -7.88,-0.56c-1.54,-0.51 -3,-1.36 -4.44,-2c-6.37,-2.63 -14.4,-1.16 -19.65,-5.61a11.24,11.24 0 0 0 -1.61,-1.23c-1.38,2.88 1.16,6.87 3.6,8.53z"/>
  <path id="svg_33" fill="#303d5c" d="m655.810003,503.259999a39.1,39.1 0 0 1 -5.37,28.86a53.79,53.79 0 0 0 -4.35,7a31.4,31.4 0 0 0 -1.7,5.54l-4.83,20c-1.31,5.4 -2.62,10.9 -2.23,16.43c0.28,3.86 1.25,8.2 -1.13,11.25a8.51,8.51 0 0 0 -1.44,2a5,5 0 0 0 0,2.6c2.44,14.51 4.25,29.68 -0.16,43.72c-4,12.73 -4.23,26.83 -7.63,39.72a8.87,8.87 0 0 1 -2.11,4.41a7,7 0 0 1 -3.17,1.5c-5,1.2 -10.3,-0.2 -15,-2.37c-3.28,-1.52 -6.82,-4.19 -6.54,-7.8c0.14,-1.71 1.14,-3.22 1.82,-4.8c1.34,-3.1 1.44,-6.57 1.8,-9.93c0.91,-8.43 3.51,-16.58 5.47,-24.83s3.3,-16.87 1.64,-25.19a219.78,219.78 0 0 0 -16.21,-49.86a6,6 0 0 0 -1.48,-2.23a15.57,15.57 0 0 1 -2.14,-1.5a6.27,6.27 0 0 1 -1,-2.61c-0.73,-2.63 -2.9,-4.57 -4.36,-6.89c-3.68,-5.84 -2.51,-13.32 -2.37,-20.22c0.13,-6.7 -0.84,-13.47 0.26,-20.09s4.89,-13.39 11.27,-15.46c3.16,-1 6.58,-0.79 9.89,-0.47c17.6,1.74 34.62,4.92 51.07,11.22z"/>
  <path id="svg_34" opacity="0.05" d="m655.810003,503.259999a39.1,39.1 0 0 1 -5.37,28.86a53.79,53.79 0 0 0 -4.35,7a31.4,31.4 0 0 0 -1.7,5.54l-4.83,20c-1.31,5.4 -2.62,10.9 -2.23,16.43c0.28,3.86 1.25,8.2 -1.13,11.25a8.51,8.51 0 0 0 -1.44,2a5,5 0 0 0 0,2.6c2.44,14.51 4.25,29.68 -0.16,43.72c-4,12.73 -4.23,26.83 -7.63,39.72a8.87,8.87 0 0 1 -2.11,4.41a7,7 0 0 1 -3.17,1.5c-5,1.2 -10.3,-0.2 -15,-2.37c-3.28,-1.52 -6.82,-4.19 -6.54,-7.8c0.14,-1.71 1.14,-3.22 1.82,-4.8c1.34,-3.1 1.44,-6.57 1.8,-9.93c0.91,-8.43 3.51,-16.58 5.47,-24.83s3.3,-16.87 1.64,-25.19a219.78,219.78 0 0 0 -16.21,-49.86a6,6 0 0 0 -1.48,-2.23a15.57,15.57 0 0 1 -2.14,-1.5a6.27,6.27 0 0 1 -1,-2.61c-0.73,-2.63 -2.9,-4.57 -4.36,-6.89c-3.68,-5.84 -2.51,-13.32 -2.37,-20.22c0.13,-6.7 -0.84,-13.47 0.26,-20.09s4.89,-13.39 11.27,-15.46c3.16,-1 6.58,-0.79 9.89,-0.47c17.6,1.74 34.62,4.92 51.07,11.22z"/>
  <path id="svg_35" fill="#303d5c" d="m584.440003,545.319999a43.21,43.21 0 0 0 0.88,7.76q4.63,26 9.88,51.85c0.31,1.5 0.61,3 1,4.46a36.08,36.08 0 0 0 6.69,13.16c14.56,18.15 15.82,44.5 23.71,66.39c0.54,1.48 1.07,3 1.64,4.43a110.19,110.19 0 0 0 4.87,10.87a3.14,3.14 0 0 0 1,1.3a3.06,3.06 0 0 0 1.59,0.3a46.28,46.28 0 0 0 20.52,-4.66a4.35,4.35 0 0 0 2.18,-1.81a4.47,4.47 0 0 0 0.23,-2.09c-0.22,-4.34 -0.49,-8.83 -2.56,-12.65a26.66,26.66 0 0 0 -5,-6.12a232.12,232.12 0 0 0 -5,-40.56c-1.53,-6.8 -3.43,-13.67 -7.38,-19.42c-2.91,-4.24 -7.09,-8.43 -6.58,-13.55c0.23,-2.25 1.17,-5.05 -0.66,-6.37c-0.8,-0.58 -2,-0.65 -2.52,-1.48a2.69,2.69 0 0 1 -0.35,-1.27a31.41,31.41 0 0 1 0.64,-10.5a54.68,54.68 0 0 0 1.57,-6.85a8.62,8.62 0 0 0 -1.72,-6.61c-0.1,-4.68 0,-9.53 -0.06,-14.2a26.26,26.26 0 0 1 0.65,-7.92c0.36,-1.22 0.9,-2.39 1.17,-3.64c1,-4.49 -1.46,-9.87 1.44,-13.43c1.21,-1.47 3.08,-2.21 4.66,-3.28a17.1,17.1 0 0 0 6.4,-9.2a50.69,50.69 0 0 0 1.81,-11.26a11.62,11.62 0 0 0 0,-2.43a4.73,4.73 0 0 0 -0.33,-1.21c-0.9,-2 -3.33,-2.82 -5.49,-3.34a178.08,178.08 0 0 0 -41.9,-4.9c-5.22,-3.55 -8.16,-2.28 -10.37,1.49a38.57,38.57 0 0 0 -2.95,7.2c-1,3.06 -1.07,20.15 -2.06,23.22c-1.25,3.99 2.45,12.14 2.4,16.32z"/>
  <path id="svg_36" fill="#2f2f38" d="m680.163339,385.779992c0.38,2.69 -0.91,5.33 -1,8c-0.13,2.38 0.63,4.69 1.06,7c1.68,9.11 -1.55,18.34 -4.85,27a13.94,13.94 0 0 0 -1.15,4.44c-0.09,2.83 1.54,5.42 2,8.21c0.93,5.87 -3.4,11.39 -3.49,17.33c0,2.74 0.82,5.52 0.14,8.17a29.31,29.31 0 0 1 -2.34,4.94c-1.39,2.92 -1.76,6.24 -3.09,9.19c-2.39,5.34 -7.53,8.82 -12.43,12c-2.78,-0.93 -5.79,-2 -7.32,-4.53a11.27,11.27 0 0 1 -1.28,-4c-1.06,-6.08 -1,-12.29 -1,-18.46a113.8,113.8 0 0 1 0.84,-15.88c1,-6.71 3.17,-13.17 4.73,-19.76c2,-8.32 3,-16.91 6,-24.89c2.69,-7 6.89,-13.3 11.3,-19.32c1.69,-2.3 3,-5.59 6.29,-5.06a6.86,6.86 0 0 1 5.59,5.62z"/>
  <path fill="#191919" id="svg_37" opacity="0.05" d="m647.496614,396.446676c0.38,2.69 -0.91,5.33 -1,8c-0.13,2.38 0.63,4.69 1.06,7c1.68,9.11 -1.55,18.34 -4.85,27a13.94,13.94 0 0 0 -1.15,4.44c-0.09,2.83 1.54,5.42 2,8.21c0.93,5.87 -3.4,11.39 -3.49,17.33c0,2.74 0.82,5.52 0.14,8.17a29.31,29.31 0 0 1 -2.34,4.94c-1.39,2.92 -1.76,6.24 -3.09,9.19c-2.39,5.34 -7.53,8.82 -12.43,12c-2.78,-0.93 -5.79,-2 -7.32,-4.53a11.27,11.27 0 0 1 -1.28,-4c-1.06,-6.08 -1,-12.29 -1,-18.46a113.8,113.8 0 0 1 0.84,-15.88c1,-6.71 3.17,-13.17 4.73,-19.76c2,-8.32 3,-16.91 6,-24.89c2.69,-7 6.89,-13.3 11.3,-19.32c1.69,-2.3 3,-5.59 6.29,-5.06a6.86,6.86 0 0 1 5.59,5.62z"/>
  <path id="svg_38" opacity="0.1" d="m607.760003,331.139999a58.23,58.23 0 0 1 5.33,11a25.18,25.18 0 0 0 6.05,0.73c7.92,0 13.53,-4.5 18.18,-10.19c0.4,-1.83 2.91,-3.53 2.63,-5c-0.37,-1.9 -2.16,-1.52 -3.77,-1.41a138.9,138.9 0 0 0 -14.66,1.89c-1.27,0.23 -13.58,3.3 -13.76,2.98z"/>
  <circle id="svg_39" fill="#755358" r="25.37" cy="316.8" cx="619.14"/>
  <path id="svg_40" opacity="0.1" d="m587.050003,498.579999c4.39,-0.26 8.81,-0.09 13.22,0.09a45.18,45.18 0 0 1 8.21,0.84c3.33,0.76 6.45,2.28 9.73,3.23c5.27,1.53 10.82,1.6 16.27,2.13a93.74,93.74 0 0 1 10.66,1.67a4.73,4.73 0 0 0 -0.33,-1.21c-0.9,-2 -3.33,-2.82 -5.49,-3.34a178.08,178.08 0 0 0 -41.9,-4.9c-5.19,-3.55 -8.13,-2.31 -10.37,1.49z"/>
  <path id="svg_41" fill="#201f30" d="m604.370003,358.329999c1.11,1.28 2.59,2.69 4.23,2.28a6,6 0 0 0 1.65,-0.89c2.92,-1.88 6.51,-2.32 9.95,-2.84a148,148 0 0 0 20.51,-4.61a20.82,20.82 0 0 1 6.06,-1.23c4.3,0 8.11,2.88 10.81,6.23s4.6,7.27 7.25,10.66c1.88,2.42 4.12,4.55 5.88,7.06c4.45,6.33 5.4,14.59 4.25,22.24s-4.2,14.86 -7.23,22a75.83,75.83 0 0 1 -5.9,11.91c1,5.81 0.48,12.46 -2.28,17.67c-0.9,1.7 -2,3.35 -2.3,5.25a13.09,13.09 0 0 0 0.16,3.85l1.29,9.19c0.39,2.8 0.78,5.6 1.29,8.37c0.93,5.09 2.2,10.61 -0.16,15.21c-2.82,5.51 0.15,12.57 -0.6,18.72a93.82,93.82 0 0 0 -24.72,-5.87c-5.45,-0.54 -11,-0.61 -16.27,-2.14c-3.28,-1 -6.4,-2.47 -9.73,-3.23a45.18,45.18 0 0 0 -8.21,-0.84c-6.08,-0.24 -12.2,-0.49 -18.22,0.41c-0.49,0.07 -1.08,0.11 -1.37,-0.28a1.3,1.3 0 0 1 -0.19,-0.72a12.16,12.16 0 0 1 1.56,-6.46c0.77,-1.35 1.83,-2.68 1.8,-4.24a6.25,6.25 0 0 0 -0.53,-2.1l-2.66,-7.15c-2.25,-6 -1.18,-13 -2.35,-19.28a113.27,113.27 0 0 1 -1.75,-14.92c-0.22,-4.28 -0.09,-8.91 2.5,-12.33a14.32,14.32 0 0 0 2,-2.71a8.41,8.41 0 0 0 0.46,-3.24q0.09,-12.84 -0.7,-25.67c2.25,-4 4.59,-8.18 6.85,-12.22c2.62,-4.71 5.27,-9.51 6.33,-14.79c0.7,-3.5 0.68,-7.09 1.18,-10.62a3.56,3.56 0 0 1 4.5,-3.56a15.75,15.75 0 0 1 4.66,0.89z"/>
  <path id="svg_42" opacity="0.1" d="m511.480003,343.089999a11.14,11.14 0 0 0 5.5,2.23c2.61,0.18 8.17,-1.36 9.8,-3.6a6.52,6.52 0 0 0 0.93,-3.75a4.13,4.13 0 0 0 -1.09,-0.21a27.87,27.87 0 0 0 -8.51,0.34a9.53,9.53 0 0 0 -6.61,5s-0.01,-0.02 -0.02,-0.01z"/>
  <path id="svg_43" fill="#1a1835" d="m595.900003,397.959999c-1.55,1.92 -3.16,3.9 -5.35,5c-2.52,1.31 -5.49,1.34 -8.33,1.28a198.55,198.55 0 0 1 -34.8,-3.83a21.84,21.84 0 0 1 -3.83,-1a20.3,20.3 0 0 1 -3.88,-2.42c-3.77,-2.71 -7.6,-5.48 -10.47,-9.14a30.67,30.67 0 0 1 -6.19,-15.2c-2.73,-2.52 -4.18,-6.09 -5.54,-9.54a14.38,14.38 0 0 1 -1.27,-4.64c-0.07,-1.64 1,-3.36 0.71,-5a13.17,13.17 0 0 0 -4,-7.24a2.59,2.59 0 0 1 -1,-1.27a2,2 0 0 1 0.23,-1.24a9.59,9.59 0 0 1 6.61,-5a28.26,28.26 0 0 1 8.52,-0.34a19.67,19.67 0 0 1 2.78,0.74l2,5.22a6.62,6.62 0 0 0 1.3,2.39a11.49,11.49 0 0 0 1.4,1.1a8.06,8.06 0 0 1 2.8,7a7.56,7.56 0 0 1 4.47,9.34a8.92,8.92 0 0 1 6.54,5.76a4.33,4.33 0 0 0 0.86,1.79a3.47,3.47 0 0 0 2.28,0.71c2.24,0.13 4.2,1.9 6.24,0.94a12.64,12.64 0 0 1 7.4,-1a6,6 0 0 0 1.58,0.14a4.37,4.37 0 0 0 1.3,-0.45a10.3,10.3 0 0 1 2.94,-1.16a2.74,2.74 0 0 1 2.78,1.08c0.72,-0.78 1.14,-1.78 1.79,-2.62a2.87,2.87 0 0 1 2.7,-1.29c-0.67,-0.6 0,-1.8 0.9,-2a12.3,12.3 0 0 1 2.7,0.1c2.34,0 4.14,-2.14 6.42,-2.7c2.1,-0.51 4.89,0.1 6,-1.77c0.38,-0.66 0.46,-1.56 1.11,-2a2.06,2.06 0 0 1 1.41,-0.16a13.36,13.36 0 0 1 4.28,1.3c2.2,8.59 1,17.51 -0.63,26.23a23.19,23.19 0 0 1 -4.76,10.89z"/>
  <path id="svg_44" opacity="0.1" d="m595.960003,428.779999l10.93,22c-1.18,-2 -3.67,-2.83 -5.64,-4.13a15,15 0 0 1 -5.39,-7.24a44.53,44.53 0 0 1 -2.06,-8.93c-0.22,-1.4 -0.69,-3.36 0,-4.62c1.25,0.26 1.65,1.86 2.16,2.92z"/>
  <path id="svg_45" opacity="0.1" d="m627.400003,447.459999c2.47,2.44 5.48,4.23 8.2,6.39c6.33,5 10.85,12 15.26,18.77a29.09,29.09 0 0 1 3.12,5.68c-0.52,0.44 -1.29,0 -1.8,-0.47l-8.58,-7.54a19.06,19.06 0 0 1 -2.86,-2.89c-1.49,-2 -2.15,-4.51 -3.5,-6.61a26,26 0 0 0 -5.22,-5.32c-2,-1.69 -11,-9.34 -8.82,-12.32c1.6,0.81 2.9,3.02 4.2,4.31z"/>
  <path id="svg_46" fill="#2a2a3f" d="m608.660003,351.959999a25.78,25.78 0 0 1 9.08,-3a19,19 0 0 1 5.77,-0.41c1.79,0.22 3.5,0.91 5.3,1c2.52,0.14 4.94,-0.88 7.38,-1.55s5.25,-0.92 7.3,0.55a3.14,3.14 0 0 0 1.59,0.85a2.76,2.76 0 0 0 1.64,-0.81a9.36,9.36 0 0 1 11.67,0.62c4.65,4.36 4.13,12.88 9.58,16.19c1.5,0.91 3.42,1.39 4.3,2.92a10.39,10.39 0 0 0 0.78,1.46a3.82,3.82 0 0 0 1.31,0.93a25.75,25.75 0 0 1 4.5,2.59a6.41,6.41 0 0 1 2.58,4.33a8.18,8.18 0 0 1 -0.79,3.65a34.24,34.24 0 0 1 -33.25,21.26a5.29,5.29 0 0 1 -3.48,-1.09a6.64,6.64 0 0 1 -1.22,-2c-2.57,-5.37 -7.38,-9.34 -10.44,-14.45c-1.82,-3.05 -3,-6.45 -4.88,-9.45c-2.88,-4.55 -7.25,-7.91 -11.53,-11.16c-2.41,-1.84 -5.1,-3.77 -8.13,-3.64c-2.7,0.11 -4.67,0.26 -3.68,-3.06a10.65,10.65 0 0 1 4.62,-5.73z"/>
  <path id="svg_47" opacity="0.05" d="m601.326657,361.960016a25.78,25.78 0 0 1 9.08,-3a19,19 0 0 1 5.77,-0.41c1.79,0.22 3.5,0.91 5.3,1c2.52,0.14 4.94,-0.88 7.38,-1.55s5.25,-0.92 7.3,0.55a3.14,3.14 0 0 0 1.59,0.85a2.76,2.76 0 0 0 1.64,-0.81a9.36,9.36 0 0 1 11.67,0.62c4.65,4.36 4.13,12.88 9.58,16.19c1.5,0.91 3.42,1.39 4.3,2.92a10.39,10.39 0 0 0 0.78,1.46a3.82,3.82 0 0 0 1.31,0.93a25.75,25.75 0 0 1 4.5,2.59a6.41,6.41 0 0 1 2.58,4.33a8.18,8.18 0 0 1 -0.79,3.65a34.24,34.24 0 0 1 -33.25,21.26a5.29,5.29 0 0 1 -3.48,-1.09a6.64,6.64 0 0 1 -1.22,-2c-2.57,-5.37 -7.38,-9.34 -10.44,-14.45c-1.82,-3.05 -3,-6.45 -4.88,-9.45c-2.88,-4.55 -7.25,-7.91 -11.53,-11.16c-2.41,-1.84 -5.1,-3.77 -8.13,-3.64c-2.7,0.11 -4.67,0.26 -3.68,-3.06a10.65,10.65 0 0 1 4.62,-5.73z"/>
  <path id="svg_48" fill="#3f3d56" d="m595.450003,719.689999c1.84,1.72 4.37,2.47 6.82,3a122.36,122.36 0 0 0 17,2.1l5.54,0.42c5.41,0.41 10.83,0.83 16.27,0.85a111.67,111.67 0 0 0 20,-1.73a1.69,1.69 0 0 0 1.83,-2a96.9,96.9 0 0 0 -2.46,-20.07c-0.63,-2.71 -5.48,3.36 -5.7,3.61a5.56,5.56 0 0 1 -4.41,2.35c-5.58,0.3 -11.83,-3.09 -16.27,-6.11a21.27,21.27 0 0 0 -3,-1.87a8.71,8.71 0 0 0 -2.44,-0.69a14.62,14.62 0 0 0 -8.3,1.68c-3.33,1.65 -6.26,4 -9.56,5.73a26.71,26.71 0 0 1 -8.57,2.71c-3,0.42 -6.62,0.62 -8.17,3.23l0,0c-1.33,2.16 -0.41,5.08 1.42,6.79z"/>
  <path id="svg_49" fill="#e8eaf2" d="m595.450003,720.689999c1.84,1.72 4.37,2.47 6.82,3a122.36,122.36 0 0 0 17,2.1l5.54,0.42c5.41,0.41 10.83,0.83 16.27,0.85a111.67,111.67 0 0 0 20,-1.73a2.2,2.2 0 0 0 1.59,-0.76a8.86,8.86 0 0 0 1.24,-2.27c-0.12,-6.75 -1.94,-13.49 -3.46,-20.07c-0.63,-2.71 -5.48,3.36 -5.7,3.61a5.56,5.56 0 0 1 -4.41,2.35c-5.58,0.3 -11.83,-3.09 -16.27,-6.11a21.27,21.27 0 0 0 -3,-1.87a8.71,8.71 0 0 0 -2.44,-0.69c0.72,4 6.48,8.86 9.45,10.34c6,3 13.16,1.5 19.87,1.85a2.63,2.63 0 0 1 1.41,0.34c0.8,0.53 0.85,1.67 0.83,2.63c-0.06,1.6 -0.26,3.48 -1.65,4.3a4.8,4.8 0 0 1 -2.23,0.46a315.37,315.37 0 0 1 -49.54,-1.74a27,27 0 0 1 -8.07,-1.79a20.68,20.68 0 0 1 -4.68,-3c-2.16,1.64 -0.4,6.07 1.43,7.78z"/>
  <path id="svg_50" fill="#3f3d56" d="m609.270003,316.519999c0.09,2.62 -1.7,7.71 3.21,6.29c2.92,-0.84 3.75,-4.31 7.46,-3.54s4.56,5.35 5.82,8.34a16,16 0 0 0 11.56,9.34a6.88,6.88 0 0 0 3.19,0c2.39,-0.68 3.75,-3.15 4.73,-5.44a43.11,43.11 0 0 0 2.1,-6a26.07,26.07 0 0 0 0.76,-4.38l0,0a19.16,19.16 0 0 0 0,-3c-0.44,-6 -3.84,-11.41 -8.19,-15.52s-9.62,-7.08 -14.84,-10a21.57,21.57 0 0 0 -5.47,-2.43a18.06,18.06 0 0 0 -5.78,-0.24a20.08,20.08 0 0 0 -7.35,1.73a10.32,10.32 0 0 0 -2.59,1.81a7.83,7.83 0 0 0 -2.24,3.75c-0.94,3.85 1.51,7.32 3.51,10.37c1.79,2.67 3.99,5.54 4.12,8.92z"/>
  <path id="svg_51" opacity="0.1" d="m526.710003,372.829999c1.05,-2.65 5.45,-9.95 4.18,-12.47a33.62,33.62 0 0 0 -3.36,6c-0.83,2.04 -0.15,4.78 -0.82,6.47z"/>
  <path id="svg_52" opacity="0.1" d="m605.050003,307.569999c-2,-3.05 -4.46,-6.52 -3.52,-10.38a8.13,8.13 0 0 1 2.86,-4.27a7.39,7.39 0 0 0 -0.73,1.8c-0.94,3.86 1.52,7.33 3.52,10.38c1.78,2.7 4,5.58 4.1,8.95c0.1,2.62 -1.69,7.72 3.22,6.29c2.92,-0.84 3.75,-4.31 7.46,-3.54s4.56,5.34 5.82,8.34a16,16 0 0 0 11.56,9.34a6.83,6.83 0 0 0 3.18,0a4.65,4.65 0 0 0 1.53,-0.7a6.39,6.39 0 0 1 -3.63,3.2a6.83,6.83 0 0 1 -3.18,0a16,16 0 0 1 -11.56,-9.34c-1.26,-3 -2.08,-7.55 -5.82,-8.34s-4.54,2.7 -7.46,3.54c-4.91,1.43 -3.12,-3.67 -3.22,-6.29c-0.13,-3.4 -2.35,-6.28 -4.13,-8.98z"/>
  <path id="svg_53" opacity="0.1" d="m603.960003,302.359999a22.89,22.89 0 0 0 1.51,2.14a25.67,25.67 0 0 0 3.47,3.6a29.44,29.44 0 0 0 2.34,1.83a36.17,36.17 0 0 0 4.77,2.85a86.5,86.5 0 0 0 15.15,5.43l10.13,2.95c1.25,0.94 3.52,2.64 6,4.39a26.07,26.07 0 0 0 0.76,-4.38l0,0a19.16,19.16 0 0 0 0,-3c-0.44,-6 -3.84,-11.41 -8.19,-15.52s-9.62,-7.08 -14.84,-10a21.57,21.57 0 0 0 -5.47,-2.43a18.06,18.06 0 0 0 -5.78,-0.24a20.08,20.08 0 0 0 -7.35,1.73a10.32,10.32 0 0 0 -2.59,1.81a10,10 0 0 0 -1.3,2.75c-0.62,2.01 0.26,4.24 1.39,6.09z"/>
  <path id="svg_54" fill="#303d5c" d="m603.960003,301.669999a23,23 0 0 0 1.51,2.15a25.06,25.06 0 0 0 3.47,3.59a27.41,27.41 0 0 0 2.34,1.84a37.3,37.3 0 0 0 4.77,2.83a87.32,87.32 0 0 0 15.15,5.43l10.13,2.95c3.54,2.67 15.37,11.43 17.36,10.34c2.34,-1.29 -10.5,-10.38 -10.5,-10.38l-0.59,0.45c1.88,-1.19 2.86,-3.93 3.29,-6.3a31.74,31.74 0 0 0 0.1,-12.84c-1,-4.19 -3.53,-8.18 -7.37,-10.14c-1.7,-0.88 -3.76,-1.47 -5,-2.82a3.46,3.46 0 0 1 -0.49,-0.65a3.9,3.9 0 0 1 -0.19,-0.35a4.34,4.34 0 0 0 -0.54,-1.05c-0.7,-0.81 -2,-0.56 -3,-0.43l-0.35,0l-0.57,0c-3.81,0.08 -7.5,-2 -11.35,-2c-4.22,0 -7.82,2.44 -11.53,4.11l-2.13,1c-2.69,1.25 -4.71,2.58 -5.82,6.14c-0.7,2.05 0.18,4.29 1.31,6.13z"/>
  <path id="svg_55" opacity="0.1" d="m633.420003,286.349999a1.85,1.85 0 0 0 -0.24,0.86a1.78,1.78 0 0 0 0.64,1.36a3,3 0 0 0 1.6,0.57a10.36,10.36 0 0 0 1.25,0.1a3.39,3.39 0 0 0 1.64,-0.28a2.9,2.9 0 0 0 0.29,-0.19a3.46,3.46 0 0 1 -0.49,-0.65c-0.09,0.07 -0.19,0.05 -0.57,0a9,9 0 0 1 -2,-0.34a2.61,2.61 0 0 1 -0.77,-0.37a2.4,2.4 0 0 1 -0.73,-1.11l-0.62,0.05z"/>
  <path id="svg_56" opacity="0.1" d="m647.910003,320.319999a4.84,4.84 0 0 1 -1.76,0.65a5.64,5.64 0 0 1 -4.67,-0.7"/>
  <path id="svg_57" fill="url(#a292624c-a529-40fd-b6b9-058cc3ca33ba)" d="m223.350003,406.449999c-1.68,-11.25 -11.89,-37.48 -11.89,-37.48l0,0c-0.18,-0.79 -0.38,-1.56 -0.61,-2.34c-7.25,-24.92 -17.29,-27.13 -17.29,-27.13l-35.94,-7.66a2.85,2.85 0 0 1 0.74,0.71l-0.57,0.09a14.09,14.09 0 0 1 -3.15,-6.81c-0.07,-0.37 -0.13,-0.76 -0.18,-1.15a25.28,25.28 0 0 0 -2.06,-38c-0.37,-0.29 -0.75,-0.58 -1.15,-0.85c1.7,-1.8 1.75,-4.31 0.49,-6.81c-2.84,-5.89 -9,-9.61 -15.32,-11.42c-4.84,-1.39 -10.09,-1.84 -14.88,-0.32a54.27,54.27 0 0 0 -7.78,3.61c-4.78,2.39 -10,4.27 -13.63,8.19a4,4 0 0 0 -1.36,3.29a8.89,8.89 0 0 0 1.35,2.39c1,1.79 0.76,4 0.07,6s-1.73,3.76 -2.22,5.76s-0.3,4.35 1.2,5.78a26,26 0 0 0 2.25,1.59a11.68,11.68 0 0 1 2.14,2.4l4.26,5.75a58.36,58.36 0 0 1 5.32,8.11a39.36,39.36 0 0 0 3.3,6.18a9,9 0 0 0 1.42,1.48l-0.42,-0.16a6.45,6.45 0 0 0 4.76,1.83l0.22,0a1.29,1.29 0 0 0 0.86,-0.35l0,0.78c0.08,2.77 0.06,5.71 -0.13,8.47l-0.33,-0.17a2.87,2.87 0 0 0 -3.1,0.33l-33.11,26.55s-7.2,9.85 -6.19,26.83l-5.8,25.48s-7.26,21.62 -1.68,37.06s8.81,24.27 8.81,24.27s2.24,17.54 5.58,19s4.8,2.21 4.8,2.21l0.67,4.19l0,0s0.22,0.41 0.61,1.1c2.44,4.24 11.47,19.2 16.72,17.6a67.9,67.9 0 0 1 0.85,12.29l5.19,34.86s3.62,9.48 3.4,14.45s4.24,12 4.24,12a23,23 0 0 0 -2.23,16.22c2.12,9.26 4.8,52.06 4.8,52.06l3.9,10.37l-0.11,12.15a11.59,11.59 0 0 1 -2.4,5.38c-2.51,2.73 -2.34,5.88 -8.37,9.6s-9.87,5.13 -9.87,10.09a12.93,12.93 0 0 1 -0.18,2c-0.56,3.62 -1.65,5.58 9.47,6.64a29.26,29.26 0 0 0 21.75,-7.28s1.93,-3.48 11,-4.88c0,0 3.09,-0.17 3.26,-2.9c0.06,-0.94 0,-2.75 0,-4.73c-0.15,-3.79 -0.51,-8.2 -1,-8.42s-1.66,-4.08 -2,-5.46l2.51,0s2.35,-17.54 0,-28.9s-0.22,-19.41 -0.22,-19.41l-0.45,-30s-3.12,-3.31 -0.67,-9.16s0,-34.75 0,-34.75s0.9,-10.36 3.46,-12.79s0.13,-15.19 0,-15.86l4.57,15.31s2,30.44 6.25,36l1.22,13.78s8.7,12.69 7,19.53s1.79,31.54 1.79,31.54l0,25.22s-3.91,10.14 1.56,13.78l2.35,-0.09c-0.8,0.72 -1.37,1.81 -2.27,2.74c-1.05,1.08 -1.64,5.17 -2,8.69c-0.28,3 -0.37,5.54 -0.37,5.54a9.18,9.18 0 0 0 6.7,4c4.35,0.25 18.74,11.25 18.74,11.25s14.23,0 17.91,-0.74l0.21,-0.06a4.8,4.8 0 0 0 2.78,-2.27a5.7,5.7 0 0 0 0.67,-4.16c-0.45,-2.18 -2.18,-4.56 -6,-6.59c-9.55,-5 -11,-9.75 -11,-9.75l-6.2,-9.34l0.89,0s-0.56,-9.93 6.24,-21.07l-0.45,-49.16s2.79,-16.88 -2,-26c0,0 -0.39,-9.7 2.81,-12.68s-4.26,-33.09 -4.26,-33.09s-1.53,-16.16 -3.37,-30.91l0,0c7.53,7.14 15.35,-18.58 16.66,-23.15l0.19,0l-0.09,-0.33l0.09,-0.33l0,0s-1.67,-6 -0.45,-4.74s4.24,-3.31 4.24,-3.31s-0.44,-24.6 4.8,-37s-2.32,-42.56 -2.32,-42.56zm-22.43,15.65l0,-0.07c0.78,15 -0.15,47.07 -0.15,47.07s-1,4.11 -2.14,8.95l-0.79,-30.45l0,0l-0.75,-28.68l3.83,3.18zm-96,-10.35s3.79,47.43 0,54.27c-1.08,1.94 -2,5.41 -2.74,9.37c-1.25,-3.29 -3.9,-11 -3,-15.11c1.22,-5.29 -2.46,-19.19 -2.46,-19.52s-0.33,-7.72 2.35,-13.41s0.89,-8.1 0.89,-8.1s2.24,-9.27 4.92,-7.47l0.04,-0.03z"/>
  <path id="svg_58" fill="#755358" d="m114.110003,518.559999c-3.3,14.52 -16.44,-7.44 -19.43,-12.7c-0.39,-0.69 -0.61,-1.1 -0.61,-1.1l1.43,-6.68l7.53,-3.06a21,21 0 0 1 3.37,2.19c4.12,3.22 10.26,10.1 7.71,21.35z"/>
  <path id="svg_59" fill="#755358" d="m216.050003,494.779999s0,0.11 -0.08,0.32l-0.11,0.36c-1.28,4.53 -8.95,30.06 -16.34,23c-8.1,-7.77 -4.16,-25.63 -4.16,-25.63l0.05,0l17,-1.75l3.37,3.47s0,0 0,0l0.27,0.23z"/>
  <path id="svg_60" fill="#3f3d56" d="m206.190003,620.379999l0.43,48.72c-6.67,11.06 -6.12,20.92 -6.12,20.92l-22,0.87c-5.37,-3.61 -1.53,-13.68 -1.53,-13.68l0,-25.08s-3.4,-24.52 -1.76,-31.31s-6.89,-19.38 -6.89,-19.38l-1.22,-13.66c-4.16,-5.47 -6.13,-35.69 -6.13,-35.69l-4.48,-15.19c0.12,0.66 2.44,13.39 0,15.74s-3.39,12.7 -3.39,12.7s2.41,28.68 0,34.49s0.65,9.09 0.65,9.09l0.44,29.78s-2.08,8 0.22,19.26s0,28.69 0,28.69l-23.66,0l0.11,-12.15l-3.81,-10.33s-2.63,-42.47 -4.71,-51.67a23,23 0 0 1 2.19,-16.09s-4.38,-7 -4.16,-11.94s-3.32,-14.34 -3.32,-14.34l-5.09,-34.6a67,67 0 0 0 -2.56,-19.75c-3,-9.85 -7.33,-22.77 -7.33,-22.77l4.94,0.44l24.95,2.22s60.65,-4.08 63.37,-0.69a11.18,11.18 0 0 1 1.14,3.53c2.72,12.24 6.32,50.56 6.32,50.56s7.34,29.89 4.19,32.84s-2.76,12.59 -2.76,12.59c4.7,9.13 1.97,25.88 1.97,25.88z"/>
  <path id="svg_61" fill="#303d5c" d="m154.920003,705.089999c-0.17,2.72 -3.2,2.88 -3.2,2.88c-8.87,1.39 -10.76,4.85 -10.76,4.85a28.59,28.59 0 0 1 -21.35,7.23c-10.91,-1.06 -9.84,-3 -9.29,-6.6a12.67,12.67 0 0 0 0.18,-2c0,-4.93 3.77,-6.33 9.69,-10s5.74,-6.82 8.21,-9.52s2.71,-8 2.71,-8c2.79,-4.84 9.85,0.74 9.85,0.74c0.33,1.72 10.84,1.48 10.84,1.48s1.4,5.58 2.11,5.91c0.48,0.22 0.83,4.6 1,8.36c0.05,1.95 0.07,3.74 0.01,4.67z"/>
  <path id="svg_62" opacity="0.1" d="m154.920003,705.089999c-0.17,2.72 -3.2,2.88 -3.2,2.88c-8.87,1.39 -10.76,4.85 -10.76,4.85a28.59,28.59 0 0 1 -21.35,7.23c-10.91,-1.06 -9.84,-3 -9.29,-6.6c4.87,1.21 14.2,2.9 19.63,-0.06c7.56,-4.1 13,-7 13,-7l12,-6c0.01,1.98 0.03,3.77 -0.03,4.7z"/>
  <path id="svg_63" fill="#303d5c" d="m221.750003,719.709999a4.8,4.8 0 0 1 -2.73,2.25l-0.21,0.06c-3.61,0.73 -17.58,0.73 -17.58,0.73s-14.12,-10.92 -18.39,-11.17a9,9 0 0 1 -6.57,-3.94s0.08,-2.54 0.36,-5.5c0.33,-3.49 0.91,-7.55 1.94,-8.62c1.89,-2 2.3,-4.68 6.57,-3c0,0 6.07,-10.69 13.21,-2.43l7.4,11.22s1.39,4.68 10.76,9.69c3.75,2 5.45,4.37 5.89,6.53a5.8,5.8 0 0 1 -0.65,4.18z"/>
  <path id="svg_64" opacity="0.1" d="m221.750003,719.709999c-0.84,0.7 -1.76,1.47 -2.73,2.25l-0.21,0.06c-3.61,0.73 -17.58,0.73 -17.58,0.73s-14.12,-10.92 -18.39,-11.17a9,9 0 0 1 -6.57,-3.94s0.08,-2.54 0.36,-5.5c4.34,1.31 10.93,3.6 12.7,6.08c2.7,3.77 10.93,9 10.93,9s15.33,-1.47 22.14,-1.68a5.8,5.8 0 0 1 -0.65,4.17z"/>
  <path id="svg_65" fill="#755358" d="m162.050003,337.629999l-20.19,21.35s-24.47,-1.81 -20.2,-9c2.18,-3.68 2.52,-11.39 2.33,-18.09c-0.18,-6.46 -0.85,-12 -0.85,-12s34.33,-17.11 31.7,-1.11a26.3,26.3 0 0 0 -0.1,9.1c1.5,8 7.31,9.75 7.31,9.75z"/>
  <path id="svg_66" opacity="0.1" d="m154.840003,318.779999a26.3,26.3 0 0 0 -0.1,9.1c-4.58,4.63 -10.94,3.61 -18,3.61c-4.66,0 -9.66,0.07 -13.41,-2.14c-0.18,-6.47 -0.22,-9.42 -0.22,-9.42s34.36,-17.15 31.73,-1.15z"/>
  <path id="svg_67" fill="#755358" d="m162.716671,308.779999a25.3,25.3 0 0 1 -25.3,25.29a25.3,25.3 0 0 1 -25.27,-25.29a25.3,25.3 0 0 1 50.57,0z"/>
  <path id="svg_68" opacity="0.1" d="m196.470003,498.549999c-6.29,15 -46.81,15.3 -46.81,15.3l0,-16.34l-2.45,-0.16c1.06,4.68 -1.49,16.09 -1.49,16.09c-32,4.52 -39.82,-13.71 -39.82,-13.71l1.11,-6.24l24.95,2.22s60.65,-4.08 63.37,-0.69a11.18,11.18 0 0 1 1.14,3.53z"/>
  <path id="svg_69" fill="#e1e7ef" d="m149.660003,511.879999l0,-16.35l-2.45,-0.15c1.06,4.67 -1.49,16.09 -1.49,16.09c-24.1,3.4 -34.48,-6.09 -38.14,-11a15.24,15.24 0 0 1 -1.68,-2.72l9.77,-55l2.3,-81l3.53,-14.2l0.81,-6.82l0,-0.08l0.09,0l2.49,1.07l14.91,6.45l16.94,-12.79l0.24,-0.19l0.85,-0.64l1.4,1.13l3.48,2.79l11.17,72.1s19.37,55.53 23,77.94c0.14,0.89 0.26,1.72 0.35,2.5c2.36,20.49 -47.57,20.87 -47.57,20.87z"/>
  <circle id="svg_70" fill="#67647e" r="1.44" cy="349.79" cx="141.62"/>
  <circle id="svg_71" fill="#67647e" r="1.44" cy="362.93" cx="142.28"/>
  <circle id="svg_72" fill="#67647e" r="1.44" cy="384.19" cx="143.72"/>
  <circle id="svg_73" fill="#67647e" r="1.44" cy="407.1" cx="146.1"/>
  <circle id="svg_74" fill="#67647e" r="1.44" cy="428.62" cx="147.54"/>
  <circle id="svg_75" fill="#67647e" r="1.44" cy="451.53" cx="148.98"/>
  <circle id="svg_76" fill="#67647e" r="1.44" cy="474.19" cx="148.4"/>
  <path id="svg_77" opacity="0.1" d="m123.270003,450.779999s-1.61,21.07 -4.56,27.2s-4.27,23.32 -4.27,23.32l-6.86,-0.78a15.24,15.24 0 0 1 -1.68,-2.72l9.77,-55l2.3,-81l3.53,-14.2l0.81,-6.82l0.1,0a2.79,2.79 0 0 1 2.44,0l0.33,0.17c-0.1,0.28 -0.2,0.57 -0.28,0.86c-2.68,8.38 -3.68,23.82 -3.68,23.82s3.84,28.25 4.27,41.39s-2.22,43.76 -2.22,43.76z"/>
  <path id="svg_78" opacity="0.1" d="m106.400003,497.209999a4.11,4.11 0 0 1 -0.27,0.51c-2.66,4.5 -9.4,7.35 -11.45,8.14c-0.39,-0.69 -0.61,-1.1 -0.61,-1.1l1.43,-6.68l7.53,-3.06a21,21 0 0 1 3.37,2.19z"/>
  <path id="svg_79" fill="#303d5c" d="m88.160003,389.689999l-6.24,3.72l-5.69,25.3s-7.12,21.45 -1.65,36.78s8.65,24.09 8.65,24.09s2.19,17.41 5.48,18.83s4.71,2.19 4.71,2.19l0.63,4.18s8.91,-3 12.07,-8.35s-2.32,-18.58 -2.32,-18.58s-4.71,-11.28 -3.51,-16.53s-2.4,-19 -2.4,-19.38s-0.33,-7.67 2.29,-13.31s0.88,-8 0.88,-8l-1.64,-16.1l-11.26,-14.84z"/>
  <path id="svg_80" opacity="0.1" d="m196.990003,493.779999s-16.53,6.24 -21.79,0.77s-4.71,-31.1 -4.71,-31.1s-5,-47.29 -8.21,-55.07s-1.53,-63.83 -1.53,-63.83s-2.14,-7.25 -4,-9.14a2.21,2.21 0 0 0 -0.39,-0.33l0.63,0.14l2.25,0.49l3.48,2.79l11.17,72.1s19.37,55.53 23,77.94l0.1,5.24z"/>
  <path id="svg_81" opacity="0.1" d="m216.050003,495.459999l-0.19,0c-2.07,0.27 -20.45,2.49 -20.52,-1.34a11.55,11.55 0 0 1 0.07,-1.32l17,-1.75l3.37,3.47s0,0 0,0c0.06,0.22 0.11,0.42 0.16,0.57l0.11,0.37z"/>
  <path id="svg_82" fill="#303d5c" d="m198.420003,364.359999l12.08,6.3s10,26 11.67,37.21c0,0 7.45,29.91 2.3,42.22s-4.7,36.72 -4.7,36.72s-3,4.49 -4.17,3.28s0.45,4.69 0.45,4.69s-20.63,2.74 -20.72,-1.31s4.72,-23.41 4.72,-23.41s1.31,-46.1 -0.55,-53.33s-1.08,-52.37 -1.08,-52.37z"/>
  <path id="svg_83" opacity="0.1" d="m162.390003,413.449999s-6.78,16.64 -9,17.74s0.43,5.47 0.43,5.47s12.41,-17.3 8.57,-23.21z"/>
  <path id="svg_84" opacity="0.1" d="m158.340003,355.089999c0.08,-0.32 -8.1,8 -10.29,9.27s8,-0.07 10.29,-9.27z"/>
  <path id="svg_85" opacity="0.1" d="m135.570003,412.139999s-12.48,8.07 -10.84,11.26s10.84,-11.26 10.84,-11.26z"/>
  <path id="svg_86" opacity="0.1" d="m158.230003,529.939999s10.63,6.84 27.16,8.54l-27.16,-8.54z"/>
  <path id="svg_87" opacity="0.1" d="m132.720003,546.369999s9.86,12.41 14.33,12.7s-14.33,-12.7 -14.33,-12.7z"/>
  <path id="svg_88" opacity="0.1" d="m146.520003,594.869999c-0.44,0.22 -5.59,11.17 -10.84,11.5s10.84,-11.5 10.84,-11.5z"/>
  <path id="svg_89" opacity="0.1" d="m192.170003,618.849999s9.77,-2.19 11.94,4.82c0,0 -0.66,-2.19 -11.94,-4.82z"/>
  <path id="svg_90" opacity="0.1" d="m185.610003,658.919999s11.82,-2.41 14.34,0.88s-14.34,-0.88 -14.34,-0.88z"/>
  <path id="svg_91" opacity="0.1" d="m152.140003,664.499999c0,0.11 -12,2.41 -11.57,3.95s12.85,1.31 13.28,-1.1a2.29,2.29 0 0 0 -1.71,-2.85z"/>
  <path id="svg_92" opacity="0.1" d="m181.660003,674.909999s19.79,-2.41 18.54,1.75s-18.54,-1.75 -18.54,-1.75z"/>
  <path id="svg_93" opacity="0.1" d="m78.050003,431.189999c0.11,0.33 13,2.08 14.78,6.24c0,0 -12.7,-5.91 -14.67,-5.91"/>
  <path id="svg_94" opacity="0.1" d="m96.260003,465.019999s-10.73,3.39 -10,8.54s-1.05,-2.4 10,-8.54z"/>
  <path id="svg_95" opacity="0.1" d="m91.260003,491.079999s3.91,-5.37 7.63,-4.38s-7.63,4.38 -7.63,4.38z"/>
  <path id="svg_96" opacity="0.1" d="m152.550003,288.959999a6.17,6.17 0 0 1 -1.26,0.94c-3.11,1.8 -4,4.58 -5.44,7.78c-1.36,2.93 -2.88,6 -5.64,7.7c-3.56,2.15 -8.26,1.36 -12,3.23a9.35,9.35 0 0 0 -4.95,9.16a26.48,26.48 0 0 0 1,4.19a29.51,29.51 0 0 1 1.13,9.11a1.23,1.23 0 0 1 0,0.27a25.29,25.29 0 1 1 27.1,-42.38l0.06,0z"/>
  <path id="svg_98" opacity="0.1" d="m140.560003,694.779999s3.85,4.93 2.86,7.72s-2.86,-7.72 -2.86,-7.72z"/>
  <path id="svg_99" opacity="0.1" d="m192.900003,707.069999s0.86,-6.61 4.31,-6.67s3.61,-0.36 6.24,0.65s5.1,2.59 4.32,2.83s-4.54,-3.79 -8.37,-1.74a27.68,27.68 0 0 0 -6.5,4.93z"/>
  <path id="svg_100" opacity="0.1" d="m129.050003,356.479999l10.8,-7.6s-15.85,-9.36 -17.74,-8.05s-3.18,13.15 -3.18,13.15l10.12,2.5z"/>
  <path id="svg_101" fill="#e1e7ef" d="m128.970003,355.979999l10.84,-7.76s-15.85,-9.36 -17.74,-8s-3.18,13.8 -3.18,13.8l10.08,1.96z"/>
  <path id="svg_102" opacity="0.03" d="m128.970003,355.979999l10.84,-7.76s-15.85,-9.36 -17.74,-8s-3.18,13.8 -3.18,13.8l10.08,1.96z"/>
  <path id="svg_103" fill="#303d5c" d="m123.870003,340.259999l-0.33,-0.16a2.81,2.81 0 0 0 -3,0.32l-32.49,26.36s-7.06,9.77 -6.08,26.63l19.08,27.16s2.19,-9.2 4.82,-7.45c0,0 3.72,47.08 0,53.87s-5.37,32.19 -5.37,32.19l12.59,1.42s1.32,-17.19 4.27,-23.32s4.57,-27.19 4.57,-27.19s2.66,-30.62 2.22,-43.76s-4.27,-41.38 -4.27,-41.38s1.1,-16.56 3.99,-24.69z"/>
  <path id="svg_104" opacity="0.1" d="m156.240003,351.669999l-13.51,-5s17.2,-18.83 19.34,-8.38l-5.83,13.38z"/>
  <path id="svg_105" fill="#e1e7ef" d="m156.240003,351.009999l-13.51,-5s17.2,-18.84 19.34,-8.39l-5.83,13.39z"/>
  <path id="svg_106" opacity="0.03" d="m156.240003,351.009999l-13.51,-5s17.2,-18.84 19.34,-8.39l-5.83,13.39z"/>
  <path id="svg_107" opacity="0.1" d="m155.800003,334.999999a0.77,0.77 0 0 1 0.56,0.11l-0.56,-0.11z"/>
  <path id="svg_108" fill="#303d5c" d="m157.110003,333.679999l35.83,7.73s9.85,2.19 17,26.93s-9.74,55.06 -9.74,55.06l-3.73,-3.16l1.87,72.26s-16.54,6.24 -21.79,0.77s-4.71,-31.1 -4.71,-31.1s-5,-47.3 -8.21,-55.07s-1.58,-63.83 -1.58,-63.83s-2.94,-10.02 -4.94,-9.59z"/>
  <path id="svg_109" opacity="0.1" d="m189.880003,379.779999c-0.51,0.47 -1.1,22.33 1.09,39a212.24,212.24 0 0 0 6.21,30l-3.25,-66.68s-2.52,-3.8 -4.05,-2.32z"/>
  <path id="svg_110" opacity="0.1" d="m185.500003,360.899999c0.87,0.54 4.7,9.63 2.95,13.35s-2.95,-13.35 -2.95,-13.35z"/>
  <path id="svg_111" opacity="0.1" d="m151.680003,281.349999a19.64,19.64 0 0 0 -7.88,-8.25a18.77,18.77 0 0 1 5.91,6.94c1.53,3.07 1.09,6.15 -1.92,7.89s-4,4.57 -5.44,7.78c-1.36,2.93 -2.87,6 -5.64,7.7c-3.56,2.15 -8.26,1.36 -12,3.23a9.34,9.34 0 0 0 -4.95,9.16a26.76,26.76 0 0 0 1,4.19a29.51,29.51 0 0 1 1.13,9.11a1.14,1.14 0 0 1 -0.12,0.58a1.11,1.11 0 0 1 -0.92,0.44a5.45,5.45 0 0 1 -2.7,-0.5a6.27,6.27 0 0 0 4.67,1.81a0.9,0.9 0 0 0 1,-1a29.85,29.85 0 0 0 -1.12,-9.11a25.22,25.22 0 0 1 -1.06,-4.19a9.35,9.35 0 0 1 4.95,-9.16c3.71,-1.87 8.41,-1.07 12,-3.22c2.77,-1.67 4.28,-4.77 5.64,-7.71c1.5,-3.2 2.33,-6 5.44,-7.78s3.54,-4.84 2.01,-7.91z"/>
  <ellipse id="svg_112" opacity="0.1" fill="#6c63ff" ry="5.63" rx="41" cy="773.94" cx="519.6"/>
  <path id="svg_113" fill="#00ff00" d="m536.220003,766.919999a11.66,11.66 0 0 0 3.84,-5.79c0.49,-2.3 -0.49,-5.05 -2.68,-5.89c-2.46,-0.94 -5.09,0.76 -7.08,2.49s-4.28,3.68 -6.89,3.32a10.47,10.47 0 0 0 3.24,-9.81a4,4 0 0 0 -0.9,-2c-1.36,-1.46 -3.84,-0.84 -5.48,0.31c-5.2,3.66 -6.65,10.72 -6.67,17.08c-0.53,-2.29 -0.09,-4.68 -0.1,-7s-0.66,-5 -2.64,-6.23a8,8 0 0 0 -4,-0.94c-2.34,-0.09 -4.94,0.14 -6.54,1.85c-2,2.13 -1.47,5.69 0.26,8s4.35,3.8 6.76,5.42a14.92,14.92 0 0 1 4.84,4.61a4.83,4.83 0 0 1 0.36,0.83l14.65,0a41.11,41.11 0 0 0 9.03,-6.25z"/>
  <ellipse id="svg_114" opacity="0.1" fill="#6c63ff" ry="4" rx="29.14" cy="739.88" cx="29.25"/>
  <path id="svg_115" fill="#00ff7f" d="m37.210003,726.779999a11.71,11.71 0 0 0 3.84,-5.8c0.49,-2.29 -0.48,-5.05 -2.68,-5.89c-2.46,-0.94 -5.09,0.77 -7.08,2.49s-4.28,3.68 -6.89,3.32a10.45,10.45 0 0 0 3.24,-9.81a4,4 0 0 0 -0.9,-2c-1.36,-1.46 -3.84,-0.84 -5.47,0.31c-5.2,3.66 -6.65,10.72 -6.68,17.08c-0.53,-2.29 -0.09,-4.68 -0.1,-7s-0.66,-5 -2.64,-6.23a7.94,7.94 0 0 0 -4,-0.94c-2.34,-0.09 -4.94,0.15 -6.54,1.85c-2,2.13 -1.47,5.69 0.26,8s4.35,3.81 6.77,5.42a15,15 0 0 1 4.83,4.61a4.83,4.83 0 0 1 0.36,0.83l14.65,0a41.06,41.06 0 0 0 9.03,-6.24z"/>
  <path id="svg_116" fill="#053f21" d="m734.900003,654.379999s5.5,7.19 -2.53,18s-14.65,20 -12,26.77c0,0 12.11,-20.15 22,-20.43s3.38,-12.22 -7.47,-24.34z"/>
  <path id="svg_117" opacity="0.1" d="m734.900003,654.379999a9,9 0 0 1 1.13,2.26c9.62,11.3 14.74,21.85 5.49,22.11c-8.61,0.25 -18.94,15.65 -21.42,19.54a7.16,7.16 0 0 0 0.3,0.89s12.11,-20.15 22,-20.43s3.35,-12.25 -7.5,-24.37z"/>
  <path id="svg_118" fill="#ffd037" d="m745.120003,663.539999c0,2.53 -0.29,4.58 -0.64,4.58s-0.63,-2.05 -0.63,-4.58s0.35,-1.34 0.7,-1.34s0.57,-1.19 0.57,1.34z"/>
  <path id="svg_119" fill="#ffd037" d="m748.620003,666.559999c-2.22,1.21 -4.15,1.94 -4.32,1.63s1.49,-1.53 3.71,-2.74s1.35,-0.33 1.52,0s1.31,-0.1 -0.91,1.11z"/>
  <path id="svg_120" fill="#007f00" d="m705.890003,654.379999s-5.5,7.19 2.53,18s14.65,20 12,26.77c0,0 -12.12,-20.15 -22,-20.43s-3.37,-12.22 7.47,-24.34z"/>
  <path id="svg_121" opacity="0.1" d="m705.890003,654.379999a9,9 0 0 0 -1.13,2.26c-9.62,11.3 -14.74,21.85 -5.49,22.11c8.61,0.25 18.94,15.65 21.42,19.54a9.24,9.24 0 0 1 -0.29,0.89s-12.12,-20.15 -22,-20.43s-3.35,-12.25 7.49,-24.37z"/>
  <path id="svg_122" fill="#ffd037" d="m695.670003,663.539999c0,2.53 0.29,4.58 0.64,4.58s0.63,-2.05 0.63,-4.58s-0.35,-1.34 -0.7,-1.34s-0.57,-1.19 -0.57,1.34z"/>
  <path id="svg_123" fill="#ffd037" d="m692.170003,666.559999c2.22,1.21 4.16,1.94 4.32,1.63s-1.49,-1.53 -3.71,-2.74s-1.35,-0.33 -1.52,0s-1.31,-0.1 0.91,1.11z"/>
  <path id="svg_124" fill="#a8a8a8" d="m697.420003,698.239999s15.36,-0.48 20,-3.77s23.63,-7.23 24.78,-2s23.08,26.29 5.74,26.43s-40.29,-2.7 -44.91,-5.51s-5.61,-15.15 -5.61,-15.15z"/>
  <path id="svg_125" opacity="0.2" d="m748.240003,717.109999c-17.34,0.14 -40.29,-2.7 -44.91,-5.51c-3.52,-2.14 -4.92,-9.83 -5.39,-13.38l-0.52,0s1,12.38 5.6,15.2s27.57,5.65 44.91,5.51c5,0 6.73,-1.82 6.64,-4.45c-0.7,1.61 -2.61,2.6 -6.33,2.63z"/>
  <text font-weight="bold" xml:space="preserve" text-anchor="start" font-family="Oswald, sans-serif" font-size="24" id="svg_128" y="108.029786" x="88.440414" stroke-opacity="null" stroke-width="0" stroke="null" fill="#000505">Rodriq</text>
  <path id="svg_127" d="m78.189279,64.780408c0,0 5.572222,1.148527 6.895652,5.1191c0,0 1.184083,1.542302 0.835831,2.362671c-0.348252,0.820351 -0.905505,1.082874 -1.044794,1.181327c0,0 0.696542,-0.754751 -1.671663,-1.968896c0,0 -1.218939,-0.196888 -1.462719,-0.393776c-0.24378,-0.196888 -3.830905,-0.853186 -4.597102,0.787551c-0.766177,1.640755 -0.940303,4.397184 -0.835831,4.528437c0.104472,0.131253 3.656779,2.625194 3.970214,3.34711c0.313434,0.721916 1.985116,2.198565 2.716476,2.165765c0.731341,-0.0328 2.472677,-0.0328 2.92542,-0.590663c0.452724,-0.557864 1.776154,-0.623481 2.089588,0c0.313434,0.623463 0.208963,0.590663 0.208963,0.590663c0,0 1.114448,-0.229687 1.462719,0.590663c0.348252,0.820369 -0.522416,1.181327 -0.626888,1.181327c-0.104472,0 0.661705,-1.246962 -0.417925,-0.984439c0,0 -0.626869,0.024618 -0.626869,-0.196888c0,-0.221505 0.36568,1.156727 0,1.181327c0,0 -1.227643,-1.279762 -1.462719,-0.590663c0,0 -0.783586,0.14767 -1.044794,0.196888c-0.261189,0.049217 -0.208963,0.196888 -0.208963,0.196888c0,0 -0.679114,0.246105 -0.208944,0.984439c0,0 0,0.270723 -0.208963,0.393793c-0.208963,0.123053 0.130604,0.713716 1.044794,0.196888c0,0 0.235076,-0.196888 0.208963,0c-0.026132,0.196888 -0.940322,1.255162 -2.089588,-0.196888c0,0 -0.417925,-1.107509 0.208963,-1.378232c0.626869,-0.270723 -0.208963,-0.812169 -1.044794,-0.393776c0,0 -0.052245,0.787551 0.208944,0.984439c0.261208,0.196888 -0.444038,0.024618 -0.626869,-0.196888c-0.18283,-0.221488 -0.417925,0.467611 -0.417925,0.590663c0,0.123053 -0.235076,0.541446 -0.417906,0.393793c-0.182849,-0.14767 -1.906758,-0.319958 -1.880645,-0.196906c0.026132,0.123071 -0.809699,0.639899 -1.044794,0.393793c-0.235076,-0.246123 -1.541059,-1.501285 -1.671663,-1.378232c-0.130604,0.123053 0.888077,1.501285 1.462719,1.772008c0.574623,0.270705 2.977665,0.442993 3.761251,-0.196888c0,0 1.201511,-0.221505 1.253757,0c0,0 1.358228,0.516828 1.253757,0.787551c-0.104491,0.270723 -0.104491,0.123053 -0.208963,0c-0.104472,-0.123071 -0.966435,-0.566064 -1.044794,-0.393776c-0.078359,0.17227 0,0.196888 0,0.196888c0,0 1.097039,0.295323 1.044794,0.393776c0,0 1.27987,0.49221 1.044794,1.575102c0,0 -0.391793,0.270723 -0.417925,0c-0.026113,-0.270723 0.156717,-1.009057 -0.626869,-0.984439c0,0 -0.130604,0.393776 -0.626869,0.196888c-0.496284,-0.196888 0.287302,-0.615281 -2.298551,-0.393776c0,0 0.104472,0.467611 0.417906,0.590663c0.313434,0.123053 0.83585,0.123053 0.83585,0.590663c0,0 0.339548,0.393776 0,0.787551c0,0 -0.208963,0.123053 -0.208963,0c0,-0.123053 0.208963,-0.713716 -0.835831,-0.984439c-1.044813,-0.270723 -0.83585,-0.196888 -0.83585,-0.196888c0,0 0.182849,1.181327 -0.208963,1.181327c-0.391793,0 0.261208,0.738334 1.044813,0.393776c0,0 0.07834,-0.295323 0.208944,-0.196888c0.130604,0.098453 -0.652982,1.525885 -2.089588,-0.196888c0,0 -0.470152,-0.910604 0,-1.181327c0,0 0.313434,-0.910604 -1.253757,-0.590663c0,0 -0.652982,0.098435 -0.626869,0c0.026113,-0.098453 -0.104472,0.467611 0,0.590663c0.104472,0.123053 -1.227643,-0.270723 -1.253757,-0.393776l-0.417906,0c0,0 0.24378,1.148527 0.417906,1.181327c0.174126,0.0328 -0.800995,-0.557864 -1.044794,-0.984439c0,0 0,0.820351 0.208963,0.984439c0.208963,0.164088 -0.940322,-0.886004 -0.835831,-0.984439c0,0 0.034818,1.050074 0.417906,1.575102c0.383089,0.525028 -0.835831,-0.49221 -1.044794,-0.787551c0,0 -0.208944,0.131253 0,0.393776c0.208963,0.262523 -0.696523,-0.262523 -0.835831,-0.984439c0,0 -0.592051,-0.459411 -0.835831,-0.590663c0,0 0.034818,1.115691 0.208963,1.181327c0,0 -0.487579,-0.360976 -0.626888,-0.787551c0,0 -0.278598,0.393776 -0.208963,0.590663c0,0 -0.800995,-0.853186 -1.044794,-1.575102c-0.24378,-0.721916 -0.208944,0.196888 -0.208944,0.196888c0,0 -0.487579,-0.065653 -0.83585,-1.378214c0,0 -2.019934,2.001677 -2.716457,2.165765c-0.696523,0.16407 0.835831,-0.787551 0.835831,-0.787551c0,0 -1.149266,0.32814 -1.253757,0.590663c0,0 0.104491,-0.360976 0.626888,-0.787551c0.522397,-0.426593 -0.626888,-0.196888 -0.626888,-0.196888c0,0 -0.24378,-0.065653 -0.208944,-2.165783c0,0 -1.56721,1.57512 -2.507513,1.57512c-0.940322,0 0.870668,-0.656316 1.044794,-1.181345c0.174126,-0.525028 -0.383089,-0.360958 -0.626888,-0.196888c-0.24378,0.164088 -2.054752,1.148527 -2.089588,1.378232c-0.034818,0.229687 -0.208944,-0.393776 -0.208944,-0.393776c0,0 -0.417925,0.196888 -0.83585,0.196888c-0.417906,0 1.21892,-0.721916 1.462719,-1.181345c0.243799,-0.459411 -2.263714,0.820369 -3.134382,1.378232c0,0 -0.73136,0.229687 -0.835831,0c-0.104491,-0.229705 1.253757,-1.115691 1.253757,-1.181345c0,-0.065635 0.48756,-0.623463 -0.417925,-0.196888c-0.905486,0.426593 -2.089588,0.098453 -2.92542,0.393776c-0.83585,0.295341 -1.741317,1.214144 -2.925439,1.181345c-1.184102,-0.032818 -1.183817,1.378214 -3.343326,1.378214c-1.253757,0 -0.73136,0.459411 -1.253757,0.393776c-0.522397,-0.065635 0.626869,-0.590663 0.626869,-0.590663c0,0 -1.253757,0.393776 -1.4627,0.393776c-0.208963,0 -1.149285,0.0328 1.044775,-0.787551c0,0 -1.602009,0 -1.044775,-0.196888c0.557215,-0.196888 1.95028,-0.590663 1.880626,-0.787551c-0.069673,-0.196888 -1.497537,-0.164088 -1.044794,-0.393776c0.452724,-0.229705 2.92542,-1.082892 2.298551,-1.181345c-0.626888,-0.098435 -1.532374,-0.131253 -1.044794,-0.393776c0.487579,-0.262523 6.477708,-0.885986 7.313558,-1.575102c0.835831,-0.689116 2.995074,-2.690794 3.552288,-2.756429c0.557234,-0.065653 0,-0.557864 -0.417906,-0.393793c-0.417925,0.164088 -0.801014,-0.098435 -0.626888,-1.181327c0.174145,-1.082874 -1.79227,2.374631 -2.92542,1.181327c-0.592051,-0.623463 -0.139308,-1.082874 -0.835831,-0.984439c-0.696523,0.098453 -0.661705,-0.721916 -0.835831,-0.393776c-0.174126,0.32814 -1.636845,2.362671 -2.298551,2.165783c-0.661705,-0.196888 -0.174126,-0.32814 -0.626888,-0.393776c-0.452743,-0.065653 -0.766177,-0.196888 -0.835831,-0.590681c-0.069654,-0.393776 -0.48756,0.262541 -0.626869,-0.393776c-0.139308,-0.656299 -0.24378,-1.476649 -0.835831,-0.787551c-0.59207,0.689116 -0.801033,0.229705 -0.83585,0c-0.034818,-0.229687 -1.288574,0.131253 -1.253738,-0.590663c0.034799,-0.721916 -1.218939,0.229705 -1.044813,-0.590663c0.174145,-0.820351 -1.059143,-0.111182 -0.835831,-0.787551c0.487579,-1.476667 -1.671663,-0.131253 -1.4627,-0.787551c0.208944,-0.656299 -1.009976,-0.131253 -0.83585,-0.787551c0.174145,-0.656299 -1.159548,-0.428348 -1.044794,-0.984439c0.24378,-1.181345 -1.253738,-0.360976 -1.044794,-1.378232c0.208963,-1.017239 -0.950927,-0.006821 -0.835831,-0.787551c0.174145,-1.181327 -1.492596,-0.752334 -1.044794,-1.575102c0.696542,-1.279779 -0.716212,-0.729632 -0.417925,-1.378214c0.452743,-0.984439 -2.908885,0.109213 -2.089588,-1.57512c0.383108,-0.787551 -2.275231,-1.311899 -1.044794,-1.968878c2.089588,-1.115691 -3.204017,-0.557864 -0.626869,-2.362653c2.403023,-1.050074 2.550275,-1.148974 -0.417925,-0.984439c-1.184102,0.065635 -2.960256,-1.476667 -1.253738,-1.57512c1.7065,-0.098435 5.189134,-0.885986 1.253738,-1.181327c-3.935377,-0.295323 -4.074685,-1.640737 -2.507494,-1.575102c1.567191,0.065635 7.696647,0.065635 6.059802,-0.393776c-1.636845,-0.459411 -9.127837,-1.582156 -6.268764,-2.756429c1.358228,-0.557864 10.928868,2.408272 8.14939,0.393776c-0.452724,-0.32814 -4.875699,-1.509485 -6.477727,-3.150222c-1.602009,-1.640737 -1.288574,-1.870443 -0.417906,-1.575102c0.870668,0.295323 10.970281,4.626872 9.403147,3.150204c-0.278617,-0.262523 -6.059802,-2.854882 -6.895652,-5.119082c-0.835831,-2.264218 -0.034818,-1.673555 0.626888,-0.984457c0.661686,0.689116 10.16501,7.269701 8.567315,5.1191c-0.487579,-0.656299 -4.736391,-3.281457 -5.641896,-5.906651c-0.905505,-2.625176 -0.208963,-1.903242 0.417925,-1.181327c0.626869,0.721916 10.310533,10.557531 8.776259,7.087978c-0.348252,-0.787551 -3.412999,-3.248657 -3.761251,-5.512875c-0.348252,-2.264218 0.557215,-1.411014 1.044794,-0.590663c0.487579,0.820369 7.348395,11.025751 7.522521,9.253761c0,0 0.034837,0.0328 0.208963,0c0.174126,-0.032818 -0.139308,-0.951639 0.208963,-0.787551c0,0 0.139308,-0.721916 0.417906,-0.590681c0.278617,0.131253 0.557234,0.032818 0.626888,-0.787551c0.069635,-0.820351 2.124406,0.131253 2.716457,4.331549c0,0 0.417925,0.426056 0.417925,1.378214c0,0.492228 2.507494,2.887699 3.970214,2.756447c1.462719,-0.131253 3.552307,2.756429 4.179176,2.953317c0.626869,0.196888 2.019934,1.378214 4.179176,0.196888c2.159242,-1.181327 4.283667,-1.575102 2.507513,-1.77199c-1.776154,-0.196888 -1.427883,-0.853186 -0.626869,-0.984439c0.800995,-0.131253 4.283648,-0.196888 3.134382,-0.787551c-1.149285,-0.590681 -2.142062,-3.746454 -0.626888,-2.953334c0.626888,0.32814 2.853162,3.244038 2.507513,1.181327c-0.104491,-0.623463 -1.462719,-1.378214 -1.044794,-3.54398c0.417906,-2.165783 0.997338,-0.44276 1.044794,-0.196888c0.069654,0.360958 1.759182,4.842505 2.089588,2.559541c0.104472,-0.721916 -0.766177,-1.673555 -0.417925,-4.331549c0.348252,-2.657976 0.835831,0 0.835831,0c0,0 0.99367,2.721964 0.83585,4.134661c-0.069673,0.623481 0.905486,0.393776 0.835831,-0.787551c-0.069673,-1.181327 -0.592051,-3.773685 -0.208963,-3.740886c0.383108,0.032818 1.530929,1.757398 1.253757,3.150222c-0.104491,0.525028 1.497537,1.050074 -0.208963,2.165765c-1.706481,1.115691 -3.552307,3.34711 -3.552307,3.34711c0,0 0.41287,1.442113 -1.671663,2.165765c-1.323411,0.459411 -0.208963,1.378214 -0.208963,1.378214z" stroke-opacity="null" stroke-width="null" stroke="null" fill="#603915"/>
  <rect opacity="0.2" id="svg_129" height="47.01296" width="275.07583" y="81.022336" x="251.069235" stroke-opacity="null" stroke-width="null" stroke="null" fill="#007fff"/>
  <rect opacity="0.46" id="svg_132" height="136.037502" width="298.082173" y="145.039983" x="98.443177" stroke-opacity="null" stroke-width="null" stroke="null" fill="#ffffaa"/>
  <rect opacity="0.2" stroke="null" id="svg_133" height="128.035288" width="79.021785" y="149.041094" x="447.539412" stroke-opacity="null" stroke-width="null" fill="#ff7f00"/>
  <path id="svg_97" fill="#303d5c" d="m151.890003,281.349999c-2.78,-5.84 -8.82,-9.54 -15,-11.34c-4.74,-1.37 -9.89,-1.82 -14.6,-0.31a53.49,53.49 0 0 0 -7.63,3.58c-4.69,2.37 -9.85,4.25 -13.38,8.14a4,4 0 0 0 -1.33,3.26a8.67,8.67 0 0 0 1.32,2.37c1,1.78 0.74,4 0.07,6s-1.7,3.73 -2.18,5.72s-0.29,4.31 1.18,5.73a26.64,26.64 0 0 0 2.2,1.58a11.43,11.43 0 0 1 2.11,2.38l4.17,5.71a58.67,58.67 0 0 1 5.23,8.05a39,39 0 0 0 3.24,6.13c1.39,1.85 3.56,3.33 5.87,3.13a1.12,1.12 0 0 0 0.92,-0.44a1.26,1.26 0 0 0 0.12,-0.58a30.17,30.17 0 0 0 -1.13,-9.11a25.22,25.22 0 0 1 -1.06,-4.19a9.35,9.35 0 0 1 5,-9.16c3.72,-1.87 8.42,-1.07 12,-3.22c2.76,-1.67 4.28,-4.77 5.64,-7.71c1.49,-3.2 2.32,-6 5.44,-7.78s3.34,-4.87 1.8,-7.94z"/>
 </g>
</svg>