<svg width="993" height="742" xmlns="http://www.w3.org/2000/svg">
 <title>photo_session</title>

 <g>
  <title>background</title>
  <rect fill="none" id="canvas_background" height="402" width="582" y="-1" x="-1"/>
 </g>
 <g>
  <title>Layer 1</title>
  <path opacity="0.51" stroke="null" id="svg_1" fill="#845335" d="m993,696.5c0,4.1 -3.75,8.08 -10.77,11.86c-36.01027,19.38 -158.12014,33.64 -303.23,33.64q-8.56494,0 -17.00977,-0.07c-165.51023,-1.28 -296.99023,-21.13 -296.99023,-45.43c0,-25.13 140.58008,-45.5 314,-45.5c47.49023,0 92.50977,1.53 132.85986,4.26q15.21021,1.035 29.5,2.29q5.93994,0.51 11.71,1.08c18.13038,1.75 34.93018,3.77 50.13038,6.02q11.06982,1.635 20.96972,3.42005c17.18994,3.11 31.61035,6.55 42.75,10.24c16.76998,5.57995 26.08004,11.72995 26.08004,18.18995z"/>
  <path opacity="0.9" id="svg_2" fill="#C48157" d="m628,466c0,16.57 -140.58008,30 -314,30c-28.65991,0 -56.41992,-0.37 -82.8,-1.06c-101.74,-2.64 -182.91,-10.06 -215.5999,-19.58c-10.1201,-2.94 -15.6001,-6.09 -15.6001,-9.36c0,-3.74 7.17993,-7.33 20.29,-10.63c7.6499,-1.93 17.31982,-3.76 28.76,-5.48c0.09009,-0.01 0.18994,-0.02 0.29,-0.04c26.2,-3.91 61.6499,-7.21 103.3999,-9.59c47.13022,-2.71 102.3001,-4.26 161.2601,-4.26c173.41992,0 314,13.43 314,30z"/>
  <path id="svg_3" fill="#3f3d56" d="m613.73345,318.70567l-22.92777,-6.38356s-8.98068,-1.79283 -3.49321,-19.33227s16.37089,-12.63067 16.37089,-12.63067l20.33925,5.90906l8.03009,2.47988l-11.2987,15.85113l-0.94709,10.56509l-6.07346,3.54134z"/>
  <polygon id="svg_4" fill="#3f3d56" points="658.036 272.364 665.23 301.097 628.372 336.819 625.203 337.613 616.75 335.238 609.556 306.505 616.843 298.843 609.394 296.891 625.289 281.461 633.583 283.201 640.236 276.596 635.745 274.801 635.322 273.111 640.762 268.83 658.036 272.364"/>
  <polygon id="svg_5" fill="#6c63ff" points="623.504 312.892 628.265 331.906 650.232 311.139 644.732 291.86 623.504 312.892"/>
  <polygon id="svg_6" stroke-miterlimit="10" stroke="#3f3d56" fill="none" points="658.036 272.364 659.045 276.393 622.394 312.047 619.225 312.84 611.037 310.625 610.585 310.614 609.556 306.505 616.843 298.843 609.394 296.891 625.289 281.461 633.583 283.201 640.236 276.596 635.745 274.801 635.322 273.111 640.762 268.83 658.036 272.364"/>
  <ellipse id="svg_7" fill="#6c63ff" transform="rotate(-14.056520462036133 -166.4544372558595,112.35928344726567) " ry="2.06908" rx="3.04917" cy="463.359053" cx="578.151603"/>
  <ellipse id="svg_8" fill="#6c63ff" transform="rotate(-14.056520462036133 -174.62057495117176,107.62480163574216) " ry="2.06908" rx="3.04917" cy="489.376242" cx="546.701075"/>
  <path id="svg_9" fill="#703703" d="m598.5,354.5l5,-17s-13,-31 2,-34s16,29 16,29l-6,19l-17,3z"/>
  <circle id="svg_10" fill="#703703" r="39.72277" cy="281.72277" cx="691.33168"/>
  <path id="svg_11" fill="#703703" d="m678.4802,309.76238s-2.33664,29.20792 -8.17822,31.54455s63.08911,18.69307 63.08911,18.69307l-17.52475,-19.86139s-3.505,-30.37623 4.67326,-37.38613l-42.0594,7.0099z"/>
  <path id="svg_12" fill="#10adb2" d="m622.5,345.5l-16,-2s-19,10 -19,23s-11,34 -11,34s-8,28 10,30s34,-30 34,-30l2,-55z"/>
  <path id="svg_13" fill="#2f2e41" d="m613.5,504.5s-35,-33 -45,-31s-30,5 -30,20s33,50 33,50s25,55 49,57a414.1672,414.1672 0 0 1 47,7s-11,40 -5,51s29,24 31,23s30,-27 42,-64s20,-65 9,-67s-131,-46 -131,-46z"/>
  <path id="svg_14" fill="#2f2e41" d="m541.5,490.5s-7,-1 -6,16s4,78 9,90s6,26 4,31s-6,13 1,14s36,-3 39,-4s6,-18 4,-18s-7,-1 -5,-8s3,-7 0,-9s-11,-5 -9,-7s4,-49 4,-49l-41,-56z"/>
  <path id="svg_15" fill="#2f2e41" d="m551.5,638.5s-17,-5 -19,6c0,0 -3,17 10,23a160.65433,160.65433 0 0 1 24,14s21,8 22,-2s-4,-46 -4,-46l-33,5z"/>
  <path id="svg_16" fill="#2f2e41" d="m664.5,650.5l32,-26s-6,32 2,38l3.65429,10.68355l-10.233,8.37077s-31.42129,-5.05432 -27.42129,-31.05432z"/>
  <path id="svg_17" fill="#2f2e41" d="m709.5,606.5s-21,6 -18,27s6.84646,43.815 6.84646,43.815s1.15354,56.185 16.15354,60.185s19,-4 19,-4s17.05078,-43.90466 12,-57c-6.11377,-15.85077 -14.92334,-33.6488 -12,-39c2.87646,-5.2655 -2,-34 -24,-31z"/>
  <path id="svg_18" fill="#10ccbc" d="m721.5,330.5s-8,1 -21,3s-22,-8 -29,-6s-65,16 -65,16l9,69s-11,80 -9,94s-24,12 -9,29s41,32 94,27s60,-4 60,-12s-12,-76 -8,-82s12,-13 8,-20s-8,-11 -2,-17s9,-12 9,-15s14,-52 14,-52s-6,-24 -13,-25s-13,-6 -18,-6s-8,1 -11,0l-9,-3z"/>
  <path id="svg_19" fill="#2f2e41" d="m634.24429,274.5844c4.60835,-0.606 9.36034,-3.36806 11.9118,-5.0596c2.90247,2.80533 20.77529,18.98269 51.48838,23.67727c0,0 0.06829,-0.60847 0.24437,-1.63773l10.52495,1.79625l19.4674,-1.895c-0.09787,0.33082 -0.1578,0.51211 -0.1578,0.51211s2.7836,-0.75054 3.74947,-7.04214q0.27764,-1.80849 0.67148,-3.59706c1.5661,-7.14253 5.364,-32.88562 -16.18915,-50.08948c-15.69151,-12.525 -33.77759,-8.57268 -45.2119,-3.79273a37.35446,37.35446 0 0 0 -20.49429,20.89056a28.85367,28.85367 0 0 0 -1.85628,7.2994l-0.44755,1.27151c-3.47166,0.48344 -10.44188,-2.43088 -14.188,-1.05157c-5.12013,1.88524 -7.63855,9.61268 -8.153,11.92408s1.89089,7.68157 8.64012,6.79413zm66.30436,7.26463c2.77256,-7.13508 8.00439,-14.92789 17.58941,-14.5395c9.9412,0.40283 11.68455,8.29685 11.33394,15.04767l-24.732,0.89959l-4.19135,-1.40776z"/>
  <ellipse id="svg_20" fill="#2f2e41" transform="rotate(-80.3148422241211 265.0387268066405,963.5665893554686) " ry="4.37524" rx="1.6555" cy="1266.467519" cx="1067.094267"/>
  <circle id="svg_21" fill="#453ec9" r="26" cy="26" cx="371"/>
  <path id="svg_22" fill="#2f2e41" d="m328.03027,191.24268c-0.08789,-0.35108 -8.793,-35.52832 -10.27929,-72.57764c-0.876,-21.814 0.88476,-40.01563 5.23144,-54.10059c5.49219,-17.79785 15.15039,-29.07422 28.70606,-33.51465l0.623,1.9004c-29.36718,9.6206 -33.917,51.87841 -32.5625,85.63476c1.47852,36.84619 10.13379,71.82373 10.22071,72.17236l-1.93942,0.48536z"/>
  <path id="svg_23" fill="#BF7E96" d="m438.42376,387.9125c-13.8186,18.13035 2.0203,53.4381 2.0203,53.4381s38.24327,5.91263 52.06187,-12.21773s-2.02029,-53.4381 -2.02029,-53.4381s-38.24328,-5.91263 -52.06188,12.21773z"/>
  <path id="svg_24" fill="#FABA6F" d="m175.57064,417.58724c11.44135,13.33856 40.6106,7.087 40.6106,7.087s10.61917,-27.8776 -0.82219,-41.21615s-40.6106,-7.087 -40.6106,-7.087s-10.61916,27.87759 0.82219,41.21615z"/>
  <path id="svg_25" fill="#2f2e41" d="m488.52246,465.87891c-111.81346,-60.80176 -199.92969,-57.57422 -254.15723,-44.15821c-58.70117,14.52149 -91.37011,43.72657 -91.69335,44.01953l-1.34375,-1.48046c0.32617,-0.29688 33.37109,-29.83887 92.55664,-44.48047c34.73925,-8.59375 71.56933,-10.46094 109.47851,-5.55274c47.34863,6.13379 96.50879,22.9209 146.11426,49.89453l-0.95508,1.75782z"/>
  <rect id="svg_26" fill="#2f2e41" height="125.55566" width="2" y="287" x="314.5"/>
  <circle id="svg_27" fill="#3f3d56" r="72" cy="323" cx="316"/>
  <circle id="svg_28" fill="#3f3d56" r="54" cy="202" cx="316"/>
  <circle id="svg_29" fill="#3f3d56" r="42" cy="112" cx="317"/>
  <g stroke="null" transform="rotate(-0.0800803154706955 1165.9656982419303,768.5376586912924) " id="svg_78">
   <path stroke="null" id="svg_34" fill="#3f3d56" d="m370.751471,577.83988s1.324307,-6.431402 10.594459,-4.287601s10.594459,4.287601 10.594459,4.287601l-21.188919,0z"/>
   <path stroke="null" id="svg_35" fill="#3f3d56" d="m325.062865,569.417807s1.324307,-6.431402 10.594459,-4.287601s10.594459,4.287601 10.594459,4.287601l-21.188919,0z"/>
   <path stroke="null" id="svg_36" fill="#3f3d56" d="m402.534849,577.83988s-7.416122,-5.206373 -10.594459,0l10.594459,0z"/>
   <path stroke="null" id="svg_37" fill="#3f3d56" d="m367.970425,563.139533s-7.416122,-5.206373 -10.594459,0l10.594459,0z"/>
   <path stroke="null" id="svg_38" fill="#3f3d56" d="m326.367374,558.356037c2.20792,4.734651 6.893921,6.767136 6.893921,6.767136s1.106252,-5.643904 -1.101667,-10.378558s-6.893923,-6.767136 -6.893923,-6.767136s-1.106252,5.643904 1.10167,10.378558z"/>
   <path stroke="null" id="svg_39" fill="#6c63ff" d="m327.884962,556.79837c3.986205,2.773058 5.521419,8.281116 5.521419,8.281116s-4.927703,1.012042 -8.913913,-1.761016s-5.521419,-8.281119 -5.521419,-8.281119s4.927705,-1.012042 8.913913,1.761019z"/>
   <path stroke="null" id="svg_40" fill="#3f3d56" d="m546.751926,574.011665s1.324307,-6.431402 10.594459,-4.287601s10.594459,4.287601 10.594459,4.287601l-21.188919,0z"/>
   <path stroke="null" id="svg_41" fill="#3f3d56" d="m525.563007,577.83988q-9.661156,-1.748827 -18.57815,-2.975035l2.289169,-5.29391c-0.794584,-0.306257 -4.237784,2.756315 -4.237784,2.756315l2.913476,-15.312862c-3.972922,0.612514 -5.826953,16.231633 -5.826953,16.231633l-4.502645,-5.206373l2.216451,5.894573c-18.191023,-2.210157 -33.888171,-2.899892 -47.083313,-2.741697l1.959302,-4.531033c-0.794584,-0.306257 -4.237784,2.756315 -4.237784,2.756315l2.913476,-15.312862c-3.972922,0.612514 -5.826953,16.231633 -5.826953,16.231633l-4.502645,-5.206373l2.347573,6.243317a264.291601,305.598282 0 0 0 -27.021852,2.516176c1.955083,-7.042627 8.78259,-13.812737 8.78259,-13.812737c-5.249703,1.888498 -7.980843,4.965165 -9.394451,7.817093a106.358042,122.98096 0 0 1 5.686391,-42.577289s-10.594459,27.563151 -9.00529,45.938585l0.201636,3.264114c-9.217015,1.6626 -13.842003,3.320416 -13.842003,3.320416l124.749758,0z"/>
   <path stroke="null" id="svg_42" fill="#3f3d56" d="m456.43416,591.774584s48.734513,-8.268945 78.928722,0"/>
   <path stroke="null" id="svg_43" fill="#3f3d56" d="m384.656699,603.106102s48.734513,-8.268945 78.928722,0"/>
   <path stroke="null" id="svg_44" fill="#3f3d56" d="m474.974464,606.146428s28.864567,-8.464543 46.748052,0"/>
   <path stroke="null" id="svg_45" fill="#3f3d56" d="m555.595298,572.161559l-0.470749,-0.281144c6.113533,-13.666423 2.844414,-31.414397 -0.974351,-43.896462a116.351162,134.535926 0 0 0 -9.873461,-24.094726l0.44773,-0.327193a116.94611,135.223859 0 0 1 9.924934,24.217352c3.853941,12.596323 7.146087,30.521345 0.945897,44.382173z"/>
   <rect stroke="null" id="svg_46" fill="#3f3d56" transform="matrix(0.05295133743775432,-0.3571108413382977,0.28978447928174283,0.06525365578326843,-2757.4401153998533,-2561.4118567101486) " height="1.99936" width="72.18033" y="11884.489839" x="-6042.012305"/>
   <rect stroke="null" id="svg_47" fill="#3f3d56" transform="matrix(0.2156559396932451,-0.24730246229960223,0.20067835239617968,0.2657598303896047,-2771.3407367280715,-1088.6325043201273) " height="98.35141" width="2.00072" y="13134.741269" x="7339.908763"/>
   <rect stroke="null" id="svg_48" fill="#3f3d56" transform="matrix(0.17258071151898838,-0.29420292871971226,0.23873664037390982,0.21267682534987592,-2144.2435127808303,268.84473079767736) " height="2.00031" width="58.00862" y="13813.856501" x="6297.620522"/>
   <circle stroke="null" transform="matrix(0.2945832402656707,0,0,0.36302451061623603,-2831.802378419088,-3079.935157462569) " id="svg_49" fill="#6c63ff" r="10" cy="9408.338676" cx="10876.238964"/>
   <circle stroke="null" transform="matrix(0.2945832402656707,0,0,0.36302451061623603,-2831.802378419088,-3079.935157462569) " id="svg_50" fill="#3f3d56" r="10" cy="9485.338676" cx="10767.238964"/>
   <circle stroke="null" transform="matrix(0.2945832402656707,0,0,0.36302451061623603,-2831.802378419088,-3079.935157462569) " id="svg_51" fill="#3f3d56" r="10" cy="9495.338676" cx="10811.238964"/>
   <circle stroke="null" transform="matrix(0.2945832402656707,0,0,0.36302451061623603,-2831.802378419088,-3079.935157462569) " id="svg_52" fill="#6c63ff" r="10" cy="9534.338676" cx="10791.238964"/>
   <circle stroke="null" transform="matrix(0.2945832402656707,0,0,0.36302451061623603,-2831.802378419088,-3079.935157462569) " id="svg_53" fill="#3f3d56" r="10" cy="9559.338676" cx="10916.238964"/>
   <circle stroke="null" transform="matrix(0.2945832402656707,0,0,0.36302451061623603,-2831.802378419088,-3079.935157462569) " id="svg_54" fill="#3f3d56" r="10" cy="9570.338676" cx="10883.238964"/>
   <circle stroke="null" transform="matrix(0.2945832402656707,0,0,0.36302451061623603,-2831.802378419088,-3079.935157462569) " id="svg_55" fill="#3f3d56" r="10" cy="9602.338676" cx="10906.238964"/>
   <circle stroke="null" transform="matrix(0.2945832402656707,0,0,0.36302451061623603,-2831.802378419088,-3079.935157462569) " id="svg_56" fill="#3f3d56" r="10" cy="9420.338676" cx="10801.238964"/>
   <path stroke="null" id="svg_57" fill="#f2f2f2" d="m177.665482,320.635706c0,44.87346 -21.647214,60.541598 -48.350407,60.541598s-48.350407,-15.668138 -48.350407,-60.541598s48.350407,-101.959605 48.350407,-101.959605s48.350407,57.086134 48.350407,101.959605z"/>
   <polygon stroke="null" id="svg_58" fill="#3f3d56" points="127.55401611328125,374.3129577636719 128.0487823486328,336.7581481933594 148.65695190429688,290.297119140625 128.1265869140625,330.8665771484375 128.34891510009766,313.98052978515625 142.55233001708984,280.36622619628906 128.40789031982422,309.51171875 128.40789031982422,309.51171875 128.80852508544922,279.1410675048828 144.01724243164062,252.37997436523438 128.8713607788086,274.3654327392578 129.12139129638672,218.6761016845703 127.54952621459961,292.3984680175781 127.67856979370117,289.35723876953125 112.21553039550781,260.1892395019531 127.43083953857422,295.1954345703125 125.99003219604492,329.1144104003906 125.94694137573242,328.2139587402344 108.12084579467773,297.5191650390625 125.89301681518555,331.39447021484375 125.71288681030273,335.6365051269531 125.68074798583984,335.7003479003906 125.69543838500977,336.0483703613281 122.03995513916016,422.1033935546875 126.92379760742188,422.1033935546875 127.50972747802734,377.654296875 145.23844146728516,343.8620300292969 127.55401611328125,374.3129577636719 "/>
   <path stroke="null" id="svg_59" fill="#f2f2f2" d="m337.148144,307.258303c0,54.820843 -26.445883,73.962251 -59.068532,73.962251s-59.068529,-19.1414 -59.068529,-73.962251s59.068529,-124.561598 59.068529,-124.561598s59.068532,69.740759 59.068532,124.561598z"/>
   <polygon stroke="null" id="svg_60" fill="#3f3d56" points="275.92779541015625,372.83489990234375 276.5325927734375,326.9546813964844 301.7091522216797,270.1941223144531 276.62757873535156,319.7573547363281 276.89971923828125,299.1277160644531 294.2512512207031,258.0622253417969 276.9714813232422,293.66845703125 276.9714813232422,293.66845703125 277.46055603027344,256.5652770996094 296.0409698486328,223.87205505371094 277.5374450683594,250.730712890625 277.8433074951172,182.69667053222656 275.922607421875,272.7615661621094 276.0805206298828,269.04591369628906 257.18963623046875,233.4126434326172 275.7776336669922,276.1784362792969 274.0171356201172,317.6161804199219 273.96498107910156,316.5165710449219 252.18704223632812,279.0176544189453 273.8990478515625,320.4019775390625 273.67877197265625,325.5841979980469 273.63951110839844,325.6623840332031 273.6575164794922,326.08770751953125 269.1914978027344,431.21929931640625 275.1580505371094,431.21929931640625 275.87420654296875,376.91668701171875 297.5325622558594,335.6335144042969 275.92779541015625,372.83489990234375 "/>
   <path stroke="null" id="svg_61" fill="#ffb8b8" d="m230.367658,386.214395l2.691642,10.266907s-2.435296,9.635103 -1.281732,20.375869s0.512696,11.05667 0.512696,11.05667s-11.525935,-0.817702 -10.372373,3.447016s12.42315,1.765417 12.42315,1.765417s2.164374,-0.718142 3.189762,-8.299858s3.603436,-22.184965 3.603436,-22.184965l-2.424229,-13.785819l-8.342353,-2.641236z"/>
   <path stroke="null" id="svg_62" fill="#6c63ff" d="m231.264873,365.206719s-4.870598,2.211335 -4.870598,8.213528s1.79443,14.21572 2.947995,14.689576s8.843978,6.949908 10.253883,2.369287s-8.331279,-25.272391 -8.331279,-25.272391z"/>
   <polygon stroke="null" id="svg_63" fill="#ffb8b8" points="272.02403259277344,436.285400390625 282.27777099609375,435.8115539550781 290.0966796875,434.3900146484375 287.78953552246094,443.8669738769531 268.81996154785156,444.4989013671875 272.02403259277344,436.285400390625 "/>
   <path stroke="null" id="svg_64" fill="#2f2e41" d="m286.764026,437.54894s-0.128173,-3.474954 -1.281732,-3.316999s-0.38452,-1.263619 0.640869,-1.57952s3.97338,-1.895427 3.97338,-1.895427l11.663788,0.947719s7.562246,8.213528 4.486076,12.636197s-11.022925,0.47386 -11.022925,0.47386l-8.587629,0.157952s-2.819819,-5.686303 0.128173,-7.423782z"/>
   <polygon stroke="null" id="svg_65" fill="#ffb8b8" points="291.3785858154297,425.3865661621094 295.09521484375,446.86810302734375 302.7859191894531,444.972900390625 298.4278106689453,418.1207275390625 293.81346130371094,415.1196594238281 291.3785858154297,425.3865661621094 "/>
   <path stroke="null" id="svg_66" fill="#2f2e41" d="m247.158393,422.701412s-21.533151,12.004386 -12.432836,24.166723c0,0 0,5.686289 9.613017,4.580621s28.198185,-3.159039 29.095397,-2.527239s3.717034,-12.478242 1.281732,-13.110053s-5.383291,-1.421571 -5.383291,-1.421571s2.563463,-0.47386 2.563463,-3.159039c0,0 7.305894,-0.631811 9.484844,-6.318079s4.229729,-9.951006 4.229729,-9.951006l4.998768,15.795247s5.76781,-13.110057 10.12571,-7.265816c0,0 -4.870595,-37.750636 -8.587629,-41.22559s-6.280515,-4.580621 -9.74119,-1.421571s-6.665025,11.214626 -6.665025,11.214626l-28.58269,30.642746z"/>
   <path stroke="null" id="svg_67" fill="#2f2e41" d="m298.555993,440.392086a28.880443,35.59031 0 0 0 -2.563463,2.685191c-1.025388,1.263619 -2.435296,0.631811 -2.563463,0s-2.435299,0.47386 -2.691645,5.054477s-1.79443,8.687387 2.307123,10.108958s3.973383,5.528337 3.973383,5.528337a13.826049,17.03829 0 0 0 10.382056,0.78976c5.76781,-2.369287 3.717034,-4.896525 3.717034,-4.896525l-7.690414,-15.637281s-2.050791,-4.738584 -4.87061,-3.632917z"/>
   <path stroke="null" id="svg_68" fill="#ffb8b8" d="m277.279182,362.047668s12.304662,5.212433 13.586397,6.3181s7.049545,6.318079 4.229729,9.003287s-5.126944,4.42267 -10.638408,2.369287s-11.663794,-8.37148 -11.663794,-8.37148l4.486076,-9.319195z"/>
   <path stroke="null" id="svg_69" fill="#6c63ff" d="m264.97452,355.09776s4.870595,-1.105667 8.331282,1.263619s6.408676,7.10786 6.408676,7.10786s-3.204338,8.371483 -5.511461,9.635103s-6.536867,-5.054481 -6.536867,-5.054481l-2.691631,-12.952101z"/>
   <path stroke="null" id="svg_70" fill="#ffb8b8" d="m242.544145,350.517139s0.128176,6.160163 -0.38452,6.791956s6.15233,19.270201 13.458224,11.056674s1.666257,-11.53053 1.666257,-11.53053s-2.691645,-6.160163 -2.563463,-6.791956s-11.92014,0 -11.92014,0l-0.256358,0.473856z"/>
   <path stroke="null" id="svg_71" opacity="0.1" d="m242.544145,350.517139s0.128176,6.160163 -0.38452,6.791956s6.15233,19.270201 13.458224,11.056674s1.666257,-11.53053 1.666257,-11.53053s-2.691645,-6.160163 -2.563463,-6.791956s-11.92014,0 -11.92014,0l-0.256358,0.473856z"/>
   <path stroke="null" id="svg_72" fill="#6c63ff" d="m244.594924,362.363572s4.870595,4.106766 6.921372,3.159039s4.614249,-5.054477 4.870595,-5.370381s13.330051,32.064347 13.330051,32.064347s-1.922603,11.846434 -7.049545,15.321388s-5.062858,6.239121 -5.703721,8.6084s-8.908065,-7.50274 -8.908065,-7.50274l-5.255115,-27.483729l0,-16.742941l1.794427,-2.053383z"/>
   <path stroke="null" id="svg_73" fill="#575a89" d="m242.480058,355.018784s-1.602168,-0.39488 -3.268425,1.342595s-9.484844,8.213528 -9.100324,8.845339s3.845195,9.635099 4.614249,13.268005s1.922603,4.106766 1.922603,4.106766s2.691645,2.369287 2.307126,4.106762s-2.05078,25.430346 0.256346,30.642776s1.922603,9.793054 1.281732,11.056674s6.152333,-3.632906 6.152333,-3.632906s10.12571,-10.108958 10.894752,-13.110057a28.651988,35.308777 0 0 0 1.025388,-6.318079s-6.536852,-31.906395 -8.587629,-33.643874s-7.498151,-16.664001 -7.498151,-16.664001z"/>
   <path stroke="null" id="svg_74" fill="#575a89" d="m256.561134,355.143705s3.158268,-2.415231 3.799137,-1.78342s6.665025,0.631808 6.793199,1.263619s0.384522,15.795244 4.742422,19.744057s1.538084,11.846434 1.538084,11.846434l3.204338,6.318079s-17.43133,20.690085 -16.278042,13.583913c0.064087,-0.394884 0,-0.47386 0,-0.47386s-6.793199,-35.855205 -5.895983,-37.750636s2.527433,-10.490911 2.096846,-12.748187z"/>
   <path stroke="null" id="svg_75" fill="#ffb8b8" d="m283.431512,369.629388l-17.431604,7.423764s-17.303431,5.054477 -14.611785,10.898722s14.09909,-4.106762 14.09909,-4.106762l23.213041,-3.20518s9.214882,-9.588973 -5.268742,-11.010544z"/>
   <circle stroke="null" transform="matrix(0.2945832402656707,0,0,0.36302451061623603,-2831.802378419088,-3079.935157462569) " id="svg_76" fill="#ffb8b8" r="32.197266" cy="9433.544996" cx="10459.752874"/>
   <path stroke="null" id="svg_77" fill="#2f2e41" d="m241.912119,333.056571l-1.754499,-0.786231s3.66848,-4.520788 8.772497,-4.127658l-1.435537,-1.769018s3.508999,-1.57243 6.698985,2.555228c1.676912,2.169827 3.617123,4.720331 4.826643,7.593456l1.878946,0l-0.784201,1.932793l2.744706,1.932797l-2.817173,-0.347182a7.914273,9.753017 0 0 1 -0.266459,5.005745l-0.637976,2.162094s-2.552007,-6.289784 -2.552007,-7.076016l0,1.965564s-1.754499,-1.768997 -1.754499,-2.948329l-0.956992,1.375896l-0.478495,-2.162127l-5.901477,2.162127l0.956992,-1.768997l-3.66848,0.589668l1.435534,-2.162127s-4.146978,2.555228 -4.306512,4.717351c-0.159481,2.162098 -2.232941,4.9139 -2.232941,4.9139l-0.956992,-1.96556s-1.435534,-8.845049 3.189939,-11.793374z"/>
  </g>
 </g>
</svg>